<?xml version="1.0" encoding="utf-8"?>
<!-- Generator: Adobe Illustrator 21.0.2, SVG Export Plug-In . SVG Version: 6.00 Build 0)  -->
<svg version="1.1" id="Capa_1" xmlns="http://www.w3.org/2000/svg" xmlns:xlink="http://www.w3.org/1999/xlink" x="0px" y="0px"
	 viewBox="0 0 500 500" style="enable-background:new 0 0 500 500;" xml:space="preserve">
<style type="text/css">
	.st0{fill:url(#SVGID_1_);}
	.st1{fill:#071D77;}
	.st2{fill:url(#SVGID_2_);stroke:url(#SVGID_3_);stroke-miterlimit:10;}
	.st3{clip-path:url(#SVGID_5_);fill:#7DB13A;}
	.st4{clip-path:url(#SVGID_7_);fill:#D21A1A;}
	.st5{clip-path:url(#SVGID_7_);fill:#CF1A1C;}
	.st6{clip-path:url(#SVGID_7_);fill:#CC1B1D;}
	.st7{clip-path:url(#SVGID_7_);fill:#C91B1F;}
	.st8{clip-path:url(#SVGID_7_);fill:#C61B21;}
	.st9{clip-path:url(#SVGID_7_);fill:#C31B23;}
	.st10{clip-path:url(#SVGID_7_);fill:#C11C24;}
	.st11{clip-path:url(#SVGID_7_);fill:#BE1C26;}
	.st12{clip-path:url(#SVGID_7_);fill:#BB1C27;}
	.st13{clip-path:url(#SVGID_7_);fill:#B91C29;}
	.st14{clip-path:url(#SVGID_7_);fill:#B61D2A;}
	.st15{clip-path:url(#SVGID_7_);fill:#B31D2C;}
	.st16{clip-path:url(#SVGID_7_);fill:#B11D2E;}
	.st17{clip-path:url(#SVGID_7_);fill:#AE1D2F;}
	.st18{clip-path:url(#SVGID_7_);fill:#AC1E31;}
	.st19{clip-path:url(#SVGID_7_);fill:#A91E32;}
	.st20{clip-path:url(#SVGID_7_);fill:#A71E33;}
	.st21{clip-path:url(#SVGID_7_);fill:#A41E35;}
	.st22{clip-path:url(#SVGID_7_);fill:#A21E36;}
	.st23{clip-path:url(#SVGID_7_);fill:#A01F38;}
	.st24{clip-path:url(#SVGID_7_);fill:#9D1F39;}
	.st25{clip-path:url(#SVGID_7_);fill:#9B1F3A;}
	.st26{clip-path:url(#SVGID_7_);fill:#991F3C;}
	.st27{clip-path:url(#SVGID_7_);fill:#96203D;}
	.st28{clip-path:url(#SVGID_7_);fill:#94203E;}
	.st29{clip-path:url(#SVGID_7_);fill:#92203F;}
	.st30{clip-path:url(#SVGID_7_);fill:#902041;}
	.st31{clip-path:url(#SVGID_7_);fill:#8E2042;}
	.st32{clip-path:url(#SVGID_7_);fill:#8C2143;}
	.st33{clip-path:url(#SVGID_7_);fill:#8A2144;}
	.st34{clip-path:url(#SVGID_7_);fill:#882146;}
	.st35{clip-path:url(#SVGID_7_);fill:#862147;}
	.st36{clip-path:url(#SVGID_7_);fill:#842148;}
	.st37{clip-path:url(#SVGID_7_);fill:#822149;}
	.st38{clip-path:url(#SVGID_7_);fill:#80224A;}
	.st39{clip-path:url(#SVGID_7_);fill:#7E224B;}
	.st40{clip-path:url(#SVGID_7_);fill:#7C224C;}
	.st41{clip-path:url(#SVGID_7_);fill:#7B224D;}
	.st42{clip-path:url(#SVGID_7_);fill:#79224E;}
	.st43{clip-path:url(#SVGID_7_);fill:#77224F;}
	.st44{clip-path:url(#SVGID_7_);fill:#752350;}
	.st45{clip-path:url(#SVGID_7_);fill:#742351;}
	.st46{clip-path:url(#SVGID_7_);fill:#722352;}
	.st47{clip-path:url(#SVGID_7_);fill:#702353;}
	.st48{clip-path:url(#SVGID_7_);fill:#6F2354;}
	.st49{clip-path:url(#SVGID_7_);fill:#6D2355;}
	.st50{clip-path:url(#SVGID_7_);fill:#6C2356;}
	.st51{clip-path:url(#SVGID_7_);fill:#6A2457;}
	.st52{clip-path:url(#SVGID_7_);fill:#692458;}
	.st53{clip-path:url(#SVGID_7_);fill:#672459;}
	.st54{clip-path:url(#SVGID_7_);fill:#66245A;}
	.st55{clip-path:url(#SVGID_7_);fill:#64245A;}
	.st56{clip-path:url(#SVGID_7_);fill:#63245B;}
	.st57{clip-path:url(#SVGID_7_);fill:#61245C;}
	.st58{clip-path:url(#SVGID_7_);fill:#60255D;}
	.st59{clip-path:url(#SVGID_7_);fill:#5F255E;}
	.st60{clip-path:url(#SVGID_7_);fill:#5D255E;}
	.st61{clip-path:url(#SVGID_7_);fill:#5C255F;}
	.st62{clip-path:url(#SVGID_7_);fill:#5B2560;}
	.st63{clip-path:url(#SVGID_7_);fill:#5A2561;}
	.st64{clip-path:url(#SVGID_7_);fill:#582561;}
	.st65{clip-path:url(#SVGID_7_);fill:#572562;}
	.st66{clip-path:url(#SVGID_7_);fill:#562563;}
	.st67{clip-path:url(#SVGID_7_);fill:#552663;}
	.st68{clip-path:url(#SVGID_7_);fill:#542664;}
	.st69{clip-path:url(#SVGID_7_);fill:#532665;}
	.st70{clip-path:url(#SVGID_7_);fill:#522665;}
	.st71{clip-path:url(#SVGID_7_);fill:#512666;}
	.st72{clip-path:url(#SVGID_7_);fill:#502666;}
	.st73{clip-path:url(#SVGID_7_);fill:#4F2667;}
	.st74{clip-path:url(#SVGID_7_);fill:#4E2668;}
	.st75{clip-path:url(#SVGID_7_);fill:#4D2668;}
	.st76{clip-path:url(#SVGID_7_);fill:#4C2669;}
	.st77{clip-path:url(#SVGID_7_);fill:#4B2769;}
	.st78{clip-path:url(#SVGID_7_);fill:#4A276A;}
	.st79{clip-path:url(#SVGID_7_);fill:#49276A;}
	.st80{clip-path:url(#SVGID_7_);fill:#48276B;}
	.st81{clip-path:url(#SVGID_7_);fill:#47276B;}
	.st82{clip-path:url(#SVGID_7_);fill:#47276C;}
	.st83{clip-path:url(#SVGID_7_);fill:#46276C;}
	.st84{clip-path:url(#SVGID_7_);fill:#45276D;}
	.st85{clip-path:url(#SVGID_7_);fill:#44276D;}
	.st86{clip-path:url(#SVGID_7_);fill:#43276E;}
	.st87{clip-path:url(#SVGID_7_);fill:#42276E;}
	.st88{clip-path:url(#SVGID_7_);fill:#41276F;}
	.st89{clip-path:url(#SVGID_7_);fill:#402870;}
	.st90{clip-path:url(#SVGID_7_);fill:#3F2870;}
	.st91{clip-path:url(#SVGID_7_);fill:#3E2871;}
	.st92{clip-path:url(#SVGID_7_);fill:#3D2871;}
	.st93{clip-path:url(#SVGID_7_);fill:#3C2872;}
	.st94{clip-path:url(#SVGID_7_);fill:#3B2872;}
	.st95{clip-path:url(#SVGID_7_);fill:#3B2873;}
	.st96{clip-path:url(#SVGID_7_);fill:#3A2873;}
	.st97{clip-path:url(#SVGID_7_);fill:#392873;}
	.st98{clip-path:url(#SVGID_7_);fill:#392874;}
	.st99{clip-path:url(#SVGID_7_);fill:#382874;}
	.st100{clip-path:url(#SVGID_7_);fill:#372875;}
	.st101{clip-path:url(#SVGID_7_);fill:#362875;}
	.st102{clip-path:url(#SVGID_7_);fill:#362876;}
	.st103{clip-path:url(#SVGID_7_);fill:#352976;}
	.st104{clip-path:url(#SVGID_7_);fill:#342976;}
	.st105{clip-path:url(#SVGID_7_);fill:#342977;}
	.st106{clip-path:url(#SVGID_7_);fill:#332977;}
	.st107{clip-path:url(#SVGID_7_);fill:#322978;}
	.st108{clip-path:url(#SVGID_7_);fill:#312978;}
	.st109{clip-path:url(#SVGID_7_);fill:#312979;}
	.st110{clip-path:url(#SVGID_7_);fill:#302979;}
	.st111{fill:url(#SVGID_8_);}
</style>
<g>
	<g>
		<g>
			<defs>
				<path id="SVGID_4_" d="M405.4,434.7c1.3,4.2,2.9,7.4,4.2,9.4c2.8,4.3,7.1,5.3,10.2,5.4c-1.2-5.8-1.9-12.3-1.6-19
					c2.5-26.9,22.2-43.9,25.3-47.1c1.7-1.6,4.9-4.4,8.8-7.4c4-3,8.2-6.3,12-10.3c7.7-7.5,13.9-15.1,13.9-15.1c0,0-5.3,8.3-12.3,16.8
					c-3.4,4.3-7.6,8.5-11.2,11.8c-3.6,3.4-6.5,6.2-8.1,7.8c-1.6,1.6-6.8,6.4-11.7,14.2c-2.5,4-4.8,8.4-7,13.8
					c-2.1,4.7-3.2,10.1-3.2,15.7c-0.1,9.6,2.4,19.1,4.9,26.4c3.4,1.9,8.7,2.5,17-0.8c6.6-3.9,12.4-8.5,17.3-13.4l-7.9-11.1l14.7,3.4
					c4.9-6.3,8.8-13,11.8-20l-14.3-4.6l17.9-5c3.1-9.7,4.8-19.7,5.6-29.2l-14.2,2.6l-0.1,0.1l0.1-0.1l-1.5,0.3l16.3-11.6
					c0.7-27.2-5.3-48.9-5.3-48.9s-1.5,11.5-13,21.8c-11.5,10.2-40.2,20.6-59.3,45.9c-1,1.4-1.9,2.9-2.7,4.2c0,0-0.5,0.2-0.9,1.4
					c-0.5,1.1-0.5,0.5-1.3,2.1c-8.2,15.1-7.4,29.4-4.6,39.1"/>
			</defs>
			<clipPath id="SVGID_1_">
				<use xlink:href="#SVGID_4_"  style="overflow:visible;"/>
			</clipPath>
			<rect x="401.4" y="318.9" style="clip-path:url(#SVGID_1_);fill:#7DB13A;" width="91.5" height="140.7"/>
		</g>
	</g>
	<g>
		<path d="M438,442.9l-0.5-0.1c0,0.3,0.1,0.6,0.2,0.8c0.1,0.2,0.2,0.5,0.3,0.7c0.2,0.3,0.3,0.6,0.3,0.7c0,0.2,0,0.3-0.1,0.4
			c-0.1,0.1-0.2,0.2-0.4,0.2c-0.3,0.1-0.7,0-1.1-0.3c-0.4-0.2-0.7-0.6-0.9-1c-0.3-0.5-0.6-1.2-0.8-2.1c-0.3-0.9-0.5-1.8-0.6-2.7
			c-0.2-1-0.2-1.9-0.2-2.7c0-0.8,0.1-1.6,0.3-2.2c0.2-0.7,0.5-1.3,0.8-1.8c0.3-0.5,0.8-1,1.3-1.3c0.5-0.3,1.1-0.6,1.7-0.7
			c0.6-0.1,1.2-0.1,2,0.1c0.7,0.1,1.5,0.4,2.2,0.7c0.7,0.3,1.4,0.7,1.9,1.2c0.6,0.5,1.2,1.2,1.7,2.1c0.5,0.9,0.8,1.7,1,2.5
			c0.1,0.3,0,0.6,0,0.9c-0.1,0.3-0.2,0.4-0.3,0.4c-0.2,0-0.5,0-0.7-0.2c-0.2-0.2-0.6-0.5-1-1c-0.3-0.4-0.7-0.8-1.1-1.1
			c-0.5-0.4-1.1-0.7-1.7-0.8s-1.2-0.1-2,0c-0.7,0.1-1.3,0.3-1.7,0.7c-0.4,0.3-0.8,0.9-1.1,1.5l6,1l1.1,0.2c0.4,0.1,1.1,0.2,2.1,0.3
			c1.7,0.2,3,0.4,3.7,0.7c0.3,0.1,0.6,0.3,0.9,0.6c0.4,0.4,0.8,0.9,1.2,1.6c0.4,0.7,0.6,1.2,0.7,1.7c0.1,0.3,0,0.6-0.1,0.8
			c-0.1,0.2-0.4,0.4-0.7,0.4c-0.4,0.1-0.9,0-1.6,0c-0.7-0.1-2-0.3-3.8-0.6l-0.8-0.1l-0.8-0.1L438,442.9z"/>
		<path d="M446.9,417.4L446.9,417.4L446.9,417.4c1,0.9,1.9,1.7,2.5,2.3c0.6,0.6,1.1,1.2,1.5,1.8c0.5,0.7,0.8,1.4,1,2
			s0.3,1.3,0.2,1.8c-0.2,1.2-0.6,2-1.3,2.6c-0.7,0.6-1.7,0.8-2.8,0.6c-1.5-0.2-3.6-0.9-6.3-2.2c-0.9-0.4-1.8-0.9-2.6-1.3
			c-0.8-0.4-1.5-0.9-2.3-1.3c-0.7-0.5-1.2-0.8-1.5-1.1c-0.2-0.2-0.4-0.4-0.5-0.7s-0.2-0.6-0.2-1.1c0-0.7,0-1.4,0.1-2
			c0.1-1,0.6-1.5,1.4-1.4c0.4,0.1,1.1,0.4,1.9,0.9c0.8,0.5,1.5,0.9,2.1,1.2c0,0,0.1,0.1,0.3,0.1c0.1,0.1,0.3,0.1,0.4,0.2
			c0.5,0.3,1.2,0.6,2.2,1s1.8,0.8,2.5,1.1c0.7,0.3,1.2,0.4,1.4,0.5c0.3,0,0.5,0,0.5-0.2c0-0.2-0.3-0.8-1.1-1.7
			c-0.7-0.9-1.7-1.8-2.9-3c-1.2-1.1-2.2-2.1-3.2-2.8c-0.6-0.5-1-0.8-1.2-1.1c-0.2-0.2-0.4-0.4-0.5-0.6c-0.3-0.6-0.3-1.2-0.2-1.9
			c0.1-0.9,0.6-1.3,1.3-1.2c0.1,0,0.4,0.1,0.9,0.2c1.8,0.5,3.6,0.9,5.2,1.1c0.7,0.1,1.4,0.2,2,0.2c0.6,0,1.2,0,1.8,0
			c0.6,0,1.2-0.1,1.8-0.1c0.9-0.1,1.4-0.1,1.6-0.1c0.1,0,0.3,0.1,0.4,0.2c0.2,0.2,0.3,0.5,0.4,1c0.2,0.9,0.2,1.5,0.1,2
			c-0.1,0.6-0.3,1.1-0.8,1.5c-0.4,0.4-1,0.8-1.7,1c-0.8,0.3-1.9,0.4-3.1,0.3C447.7,417.5,447.4,417.5,446.9,417.4z"/>
		<path d="M444.2,398.7l0.9,0.3c0.2,0,0.4,0.1,0.8,0.3c2.2,0.9,4.3,1.5,6.2,1.9c0.8,0.2,1.6,0.3,2.4,0.3c-0.5-0.7-1-1.4-1.5-2.2
			c-0.2-0.3-0.4-0.5-0.6-0.8s-0.3-0.4-0.4-0.5s-0.2-0.2-0.4-0.5c-0.3-0.4-0.8-1-1.6-1.9c-0.5-0.6-0.9-1-1-1.2
			c-0.2-0.2-0.4-0.6-0.8-1.1c-0.5-0.6-0.8-1.4-1-2.2c-0.1-0.5-0.2-0.9-0.3-1.5c-0.1-0.5-0.1-1,0-1.4s0.1-0.8,0.2-1
			c0.2-0.3,0.4-0.4,0.6-0.3c0.2,0.1,0.5,0.3,0.7,0.7c0.8,1,1.8,2.3,2.9,3.9c1.1,1.6,2.2,3.2,3.2,4.8c1,1.6,1.8,2.9,2.3,3.9
			c0.5,0.8,0.9,1.7,1.2,2.4c0.7,1.5,1.1,2.8,1.3,3.8s0.3,2.1,0.1,3.2c-0.1,0.6-0.2,1.2-0.4,1.8c-0.2,0.5-0.3,0.8-0.4,1.1
			c-0.2,0.4-0.5,0.8-0.8,1c-0.3,0.2-0.5,0.2-0.8,0.1c-0.3-0.1-0.6-0.5-1-1.1c-0.4-0.6-0.7-1.1-0.8-1.6c-0.1-0.3,0-0.7,0.3-1.3
			c0.3-0.6,0.5-1.2,0.6-1.7c0.1-0.3,0.1-0.7,0.2-1.1c0-0.4,0-0.8,0-1.3c-1.4,0.2-2.6,0.2-3.7,0.3c-1.1,0-2.2,0-3.2-0.1
			c-1.3-0.1-2.7-0.3-4.1-0.7c-1.4-0.4-2.6-0.8-3.5-1.3c-0.5-0.3-0.9-0.6-1.1-0.8c-0.2-0.3-0.3-0.6-0.3-1.1c0-0.6,0-1.3,0.1-2.1
			c0.1-0.7,0.3-1.3,0.5-1.7c0.2-0.3,0.4-0.5,0.7-0.5c0.3,0,0.8,0.2,1.5,0.5C443.5,398.5,443.9,398.6,444.2,398.7z"/>
		<path d="M457.6,380.1c0,0.9,0,1.6,0.1,2.1c0.1,0.5,0.3,1.1,0.6,1.8c0.2,0.5,0.5,1,0.9,1.5c0.3,0.4,0.7,0.9,1.3,1.5
			c0.8,0.8,1.6,1.3,2.4,1.6c0.7,0.3,1.4,0.4,2,0.3c0.6-0.1,1.1-0.4,1.6-0.9c0.4-0.4,0.6-0.9,0.7-1.6c0.1-0.7,0.1-1.4,0-2.1
			c-0.1-0.7-0.4-1.4-0.7-2.1c-0.3-0.7-0.8-1.2-1.3-1.7c-0.9-0.8-2.1-1.3-3.7-1.4c-0.6-0.1-1-0.2-1.1-0.3c-0.3-0.2-0.4-0.6-0.4-1.2
			c0-0.7,0.1-1.3,0.3-2c0.2-0.7,0.4-1.2,0.6-1.5c0.1-0.2,0.3-0.3,0.6-0.4s0.4-0.2,0.6-0.2c0.4,0,1,0.1,1.7,0.5
			c0.7,0.4,1.4,0.8,2,1.4c1.5,1.4,2.6,3,3.3,4.8c0.7,1.8,0.8,3.7,0.5,5.6c-0.3,1.9-1.1,3.5-2.4,4.9c-0.7,0.8-1.6,1.5-2.5,2
			c-1,0.6-1.9,0.9-2.8,1c-1.5,0.2-2.8-0.3-4-1.3c-0.7-0.6-1.3-1.4-1.8-2.4c-0.5-1-0.9-2.1-1.2-3.3c-0.3-1.2-0.4-2.4-0.4-3.7
			c0-1.2,0.2-2.4,0.5-3.5c0.3-1,0.7-1.9,1.2-2.9c0.5-0.9,1-1.7,1.5-2.3c0.7-0.8,1.2-1.1,1.4-0.9c0.1,0.1,0.2,0.3,0.2,0.6
			c0,0.6-0.1,1-0.2,1.3s-0.3,0.8-0.7,1.5c-0.4,0.7-0.6,1.3-0.7,1.6C457.7,378.9,457.6,379.4,457.6,380.1z"/>
	</g>
</g>
<g>
	<g>
		<g>
			<g>
				<path class="st1" d="M112.7,420.3H96.6l-1.9,4.3c-0.6,1.4-0.9,2.6-0.9,3.5c0,1.2,0.5,2.1,1.6,2.7c0.6,0.3,2.1,0.6,4.5,0.8v1.2
					H84.5v-1.2c1.6-0.2,3-0.9,4-2c1.1-1.1,2.4-3.3,3.9-6.6l16.4-35.1h0.6L126,424c1.6,3.4,2.9,5.6,3.9,6.5c0.8,0.7,1.8,1.1,3.2,1.2
					v1.2H111v-1.2h0.9c1.8,0,3-0.2,3.7-0.7c0.5-0.3,0.7-0.8,0.7-1.5c0-0.4-0.1-0.8-0.2-1.2c0-0.2-0.4-1-1-2.4L112.7,420.3z
					 M111.6,417.9l-6.8-15.2l-7,15.2H111.6z"/>
			</g>
			<g>
				<path class="st1" d="M166.3,387.8l0.4,14.7h-1.4c-0.7-3.7-2.3-6.6-4.8-8.9c-2.6-2.2-5.3-3.4-8.3-3.4c-2.3,0-4.1,0.6-5.4,1.8
					c-1.3,1.2-2,2.5-2,4.1c0,1,0.2,1.8,0.7,2.6c0.7,1,1.7,2,3.1,3c1.1,0.7,3.5,2,7.3,3.8c5.4,2.5,9,4.9,10.8,7.2
					c1.8,2.3,2.8,4.8,2.8,7.7c0,3.7-1.5,6.8-4.5,9.5c-3,2.7-6.8,4-11.4,4c-1.4,0-2.8-0.1-4.1-0.4c-1.3-0.3-2.9-0.8-4.8-1.6
					c-1.1-0.4-2-0.6-2.7-0.6c-0.6,0-1.2,0.2-1.9,0.6c-0.7,0.4-1.2,1.1-1.6,2h-1.2v-16.6h1.2c1,4.7,2.9,8.2,5.7,10.7
					c2.8,2.5,5.9,3.7,9.1,3.7c2.5,0,4.5-0.7,6-2c1.5-1.3,2.2-2.9,2.2-4.6c0-1-0.3-2-0.9-3c-0.6-1-1.4-1.9-2.6-2.8
					c-1.2-0.9-3.2-2-6.2-3.4c-4.2-2-7.2-3.6-9-5c-1.8-1.4-3.2-2.9-4.2-4.6c-1-1.7-1.5-3.6-1.5-5.7c0-3.5,1.3-6.5,4-9
					c2.7-2.5,6-3.7,10.1-3.7c1.5,0,2.9,0.2,4.3,0.5c1.1,0.3,2.3,0.7,3.9,1.4c1.5,0.7,2.6,1.1,3.2,1.1c0.6,0,1-0.2,1.4-0.5
					c0.3-0.3,0.7-1.2,0.9-2.5H166.3z"/>
			</g>
			<g>
				<path class="st1" d="M191.1,391.3v17.9h0.9c2.9,0,5-0.9,6.3-2.6c1.3-1.8,2.1-4.3,2.5-7.8h1.3v23.1h-1.3
					c-0.3-2.5-0.8-4.6-1.7-6.2c-0.9-1.6-1.9-2.7-3-3.2c-1.1-0.5-2.8-0.8-5-0.8v12.4c0,2.4,0.1,3.9,0.3,4.4c0.2,0.5,0.6,1,1.2,1.3
					c0.6,0.3,1.5,0.5,2.8,0.5h2.7c4.3,0,7.7-1,10.3-2.9c2.6-1.9,4.4-4.8,5.5-8.7h1.2l-2.1,14h-39.5v-1.2h1.5c1.3,0,2.4-0.2,3.2-0.7
					c0.6-0.3,1-0.8,1.3-1.6c0.2-0.5,0.4-1.9,0.4-4.1v-29c0-2-0.1-3.2-0.2-3.7c-0.2-0.8-0.6-1.3-1.2-1.8c-0.9-0.6-2-0.9-3.5-0.9h-1.5
					v-1.2H212v13h-1.3c-0.7-3.2-1.6-5.5-2.7-6.9c-1.2-1.4-2.9-2.4-5-3.1c-1.3-0.4-3.6-0.6-7.1-0.6H191.1z"/>
			</g>
			<g>
				<path class="st1" d="M264.5,387.8V403h-1.3c-1-4-2.8-7-5.5-9.2c-2.7-2.1-5.8-3.2-9.2-3.2c-2.9,0-5.5,0.8-7.9,2.4
					c-2.4,1.6-4.1,3.6-5.2,6.2c-1.4,3.3-2.1,6.9-2.1,10.9c0,3.9,0.5,7.5,1.6,10.8c1,3.2,2.7,5.7,4.9,7.3c2.2,1.7,5.1,2.5,8.6,2.5
					c2.9,0,5.5-0.6,7.9-1.8c2.4-1.2,4.9-3.3,7.6-6.3v3.8c-2.6,2.6-5.2,4.4-8,5.6c-2.8,1.2-6,1.7-9.7,1.7c-4.9,0-9.2-0.9-13-2.8
					s-6.7-4.6-8.8-8.1c-2.1-3.5-3.1-7.3-3.1-11.3c0-4.2,1.1-8.2,3.4-12c2.3-3.8,5.4-6.7,9.2-8.8c3.9-2.1,8-3.1,12.4-3.1
					c3.2,0,6.6,0.7,10.2,2c2.1,0.8,3.4,1.2,3.9,1.2c0.7,0,1.3-0.3,1.9-0.8c0.5-0.5,0.9-1.3,1-2.4H264.5z"/>
			</g>
			<g>
				<path class="st1" d="M295,388.2c7.3-0.3,13.2,1.8,17.8,6.1c4.6,4.4,6.8,9.8,6.8,16.3c0,5.6-1.7,10.5-5.1,14.7
					c-4.5,5.6-10.9,8.4-19.1,8.4c-8.2,0-14.6-2.7-19.1-8.1c-3.6-4.2-5.3-9.3-5.3-15.1c0-6.5,2.3-12,6.9-16.4
					C282.5,390,288.2,387.9,295,388.2z M295.4,390.2c-4.2,0-7.4,2.1-9.5,6.2c-1.8,3.4-2.7,8.2-2.7,14.6c0,7.5,1.4,13.1,4.1,16.7
					c1.9,2.5,4.6,3.8,8,3.8c2.3,0,4.3-0.5,5.8-1.6c2-1.4,3.5-3.6,4.6-6.6c1.1-3,1.7-7,1.7-11.9c0-5.8-0.6-10.2-1.7-13.1
					c-1.1-2.9-2.6-4.9-4.3-6.1C299.6,390.8,297.6,390.2,295.4,390.2z"/>
			</g>
			<g>
				<path class="st1" d="M339.2,388.8l22.6,27.3v-18.9c0-2.6-0.4-4.4-1.2-5.4c-1.1-1.3-2.9-1.9-5.4-1.8v-1.2h15.1v1.2
					c-1.9,0.2-3.2,0.5-3.9,0.9c-0.7,0.4-1.2,1-1.6,1.8c-0.4,0.9-0.6,2.3-0.6,4.4v36.7h-1.1l-30.9-36.7v28c0,2.5,0.6,4.2,1.8,5.1
					c1.2,0.9,2.6,1.3,4.1,1.3h1.1v1.2H323v-1.2c2.5,0,4.3-0.5,5.3-1.5s1.5-2.6,1.5-5v-31.1l-1-1.2c-1-1.2-1.8-1.9-2.6-2.3
					c-0.7-0.4-1.8-0.6-3.2-0.6v-1.2H339.2z"/>
			</g>
		</g>
		<g>
			<path class="st1" d="M402.3,431c-0.8-0.4-1.3-0.9-1.5-1.5c-0.3-0.6-0.4-2-0.4-4.2v-34h3.4c2.1,0,3.6,0.2,4.5,0.6
				c0.3,0.1,0.5,0.3,0.8,0.5c0.7-1.2,1.3-2.4,2.1-3.6h-36.8v11.9h1.3c0.5-3.2,1.8-5.7,3.7-7.5c1.4-1.3,3.6-1.9,6.7-1.9h3.3v34
				c0,2.2-0.1,3.6-0.4,4.1c-0.3,0.7-0.8,1.3-1.4,1.6c-0.8,0.5-1.9,0.7-3.2,0.7h-1.5v1.2h21.9c-0.1-0.4-0.3-0.8-0.4-1.3
				C403.6,431.5,402.8,431.3,402.3,431z"/>
		</g>
		<g>
			<path class="st1" d="M411.9,394.8c0.9,1.2,1.7,3.2,2.4,5.9h1.2v-11.9h-4.3c-0.8,1.2-1.5,2.4-2.1,3.6
				C410.2,393.1,411.2,393.8,411.9,394.8z"/>
		</g>
	</g>
	<g>
		<g>
			<defs>
				<path id="SVGID_6_" d="M424,340.4c-0.7-6.5-2-13.5-5.2-19.2c-6.9-12.1-14.4-24.1-22.9-35.1c-19.7-25.4-43.1-47.7-66.4-70
					c-1.4-1.3-2.4-3-3-4.8c-4.5-14.6-8.1-29.4-12.7-44c-8-25.5-16.3-51-30.4-74.2c-4.5-7.4-10.2-14.4-16.6-20.4
					c-5.3-4.9-11-7.1-16.8-6.6l0,0.7l0-0.7c-5.8-0.5-11.5,1.7-16.8,6.6c-6.4,6-12.1,13-16.6,20.4c-14.2,23.1-22.4,48.6-30.4,74.2
					c-4.6,14.6-8.1,29.4-12.7,44c-0.6,1.8-1.6,3.4-3,4.8c-23.3,22.3-46.7,44.6-66.4,70c-8.6,11-16.1,23-22.9,35.1
					c-3.2,5.7-4.5,12.7-5.2,19.2c-1,8.4,3.6,14.6,11.3,18.5c8,4.1,16.8,5.2,25.7,5.5c24.9,0.7,49.2-3.4,73.3-8.7
					c20.1-4.4,40-9.8,60.1-14.6c0.4-0.1,0.8-0.1,1.2-0.1l0,0.2c0.8-0.2,1.6-0.3,2.4-0.3c0.8,0.1,1.6,0.1,2.4,0.3l0-0.2
					c0.4,0.1,0.8,0,1.2,0.1c20.1,4.7,39.9,10.1,60.1,14.6c24.1,5.3,48.4,9.4,73.3,8.7c8.9-0.3,17.7-1.4,25.7-5.5
					C420.4,355,424.9,348.8,424,340.4z M394,345.9c-4.5,0.7-9.2,0.7-12.1,0.9c-0.4,0-0.7,0-1,0c-28-0.6-53.2-5.9-78.3-11.8
					c-16.4-3.8-32.6-8.5-49-12.5c-0.5-0.1-0.9-0.1-1.4-0.2l0-0.2c-0.7,0-1.4-0.1-2-0.2c-0.2,0-0.4,0.1-0.6,0.1
					c-0.6,0.2-1.1,0.4-1.7,0.5l0,0c-0.1,0-0.2,0-0.3,0l0,0c-30.3,8.2-60.7,16-91.8,20.6c-17,2.5-34.2,4.9-51.4,1.5
					c-8.8-1.7-10.5-3.7-6.9-11.4c4.7-9.9,10.1-19.7,16.6-28.6c18.5-25.3,40.8-47.5,64.1-68.5c10.1-9.1,15.8-19.1,19-31.8
					c7.8-30.9,17-61.5,31.5-90.3c4.5-9,10.4-17.4,16.6-25.4c1.8-2.3,3.2-3.6,4.6-4.1l0.3-0.1c2.2-0.6,4.4,0.9,7.5,4.2
					c8.9,9.4,14.5,20.7,19.6,32.2c14.3,32.1,23.3,65.7,32.3,99.4c0.5,2,1.6,3.8,3.1,5.2c27.8,26.3,55.6,52.5,77.7,83.8
					c1.1,1.5,2.1,3.2,3.1,4.8C408.6,340.1,411.8,343.1,394,345.9z"/>
			</defs>
			<clipPath id="SVGID_2_">
				<use xlink:href="#SVGID_6_"  style="overflow:visible;"/>
			</clipPath>
			<rect x="93.7" y="83.9" style="clip-path:url(#SVGID_2_);fill:#D21A1A;" width="318.1" height="264.2"/>
			<path style="clip-path:url(#SVGID_2_);fill:#D21A1A;" d="M414.8,215.3c0,43.8-18.4,83.5-48.3,112.2c-7.5,7.2-15.6,13.7-24.4,19.4
				c-4.4,2.9-8.9,5.5-13.6,7.9v-5.7H171.5v5.7c-4.7-2.4-9.2-5.1-13.6-7.9c-8.8-5.7-16.9-12.2-24.4-19.4
				c-14.9-14.4-27-31.4-35.3-50.4c-4.2-9.5-7.4-19.5-9.6-29.8h4.2v-63.9h-4.2c2.2-10.3,5.4-20.3,9.6-29.8
				c8.3-19,20.4-36.1,35.3-50.4c7.5-7.2,15.6-13.7,24.4-19.4c2.2-1.4,4.4-2.8,6.7-4.1v3.3h170.9v-3.3c2.3,1.3,4.5,2.7,6.7,4.1
				c8.8,5.7,16.9,12.2,24.4,19.4C396.3,131.8,414.8,171.5,414.8,215.3z"/>
			<path style="clip-path:url(#SVGID_2_);fill:#CF1A1C;" d="M413.8,215.3c0,43.5-18.3,83-48,111.5c-7.4,7.1-15.5,13.6-24.2,19.3
				c-4.4,2.8-8.9,5.5-13.5,7.9v-4.8H171.9v4.8c-4.6-2.4-9.1-5.1-13.5-7.9c-8.7-5.7-16.8-12.1-24.2-19.3c-29.6-28.5-48-68-48-111.5
				s18.3-83,48-111.5c7.4-7.1,15.5-13.6,24.2-19.3c4.4-2.8,8.9-5.5,13.5-7.9v6.3h156.1v-6.3c4.6,2.4,9.1,5.1,13.5,7.9
				c8.7,5.7,16.8,12.1,24.2,19.3C395.4,132.3,413.8,171.8,413.8,215.3z"/>
			<path style="clip-path:url(#SVGID_2_);fill:#CC1B1D;" d="M412.7,215.3c0,43.3-18.2,82.4-47.7,110.8c-7.4,7.1-15.4,13.5-24.1,19.1
				c-4.3,2.8-8.8,5.4-13.4,7.8v-3.9H172.4v3.9c-4.6-2.4-9.1-5-13.4-7.8c-8.7-5.6-16.7-12-24.1-19.1c-29.5-28.4-47.7-67.5-47.7-110.8
				s18.2-82.4,47.7-110.8c7.4-7.1,15.4-13.5,24.1-19.1c4.3-2.8,8.8-5.4,13.4-7.8v5.4h155.2v-5.4c4.6,2.4,9.1,5,13.4,7.8
				c8.7,5.6,16.7,12,24.1,19.1C394.5,132.9,412.7,172,412.7,215.3z"/>
			<path style="clip-path:url(#SVGID_2_);fill:#C91B1F;" d="M411.7,215.3c0,43-18.1,81.9-47.4,110.1c-7.3,7-15.3,13.4-23.9,19
				c-4.3,2.8-8.8,5.4-13.3,7.8v-3.1H172.9v3.1c-4.6-2.4-9-5-13.3-7.8c-8.6-5.6-16.6-12-23.9-19c-29.3-28.2-47.4-67.1-47.4-110.1
				s18.1-81.9,47.4-110.1c7.3-7,15.3-13.4,23.9-19c4.3-2.8,8.8-5.4,13.3-7.8v4.5h154.2v-4.5c4.6,2.4,9,5,13.3,7.8
				c8.6,5.6,16.6,12,23.9,19C393.6,133.4,411.7,172.3,411.7,215.3z"/>
			<path style="clip-path:url(#SVGID_2_);fill:#C61B21;" d="M410.7,215.3c0,42.7-18,81.4-47.1,109.4c-7.3,7-15.2,13.3-23.8,18.9
				c-4.3,2.8-8.7,5.4-13.3,7.8v-2.2H173.4v2.2c-4.6-2.4-9-5-13.3-7.8c-8.5-5.6-16.5-11.9-23.8-18.9c-29.1-28-47.1-66.7-47.1-109.4
				s18-81.4,47.1-109.4c7.3-7,15.2-13.3,23.8-18.9c4.3-2.8,8.7-5.4,13.3-7.8v3.7h153.2v-3.7c4.6,2.4,9,5,13.3,7.8
				c8.5,5.6,16.5,11.9,23.8,18.9C392.7,133.9,410.7,172.6,410.7,215.3z"/>
			<path style="clip-path:url(#SVGID_2_);fill:#C31B23;" d="M409.7,215.3c0,42.5-17.9,80.9-46.8,108.7c-7.2,7-15.1,13.2-23.6,18.8
				c-4.2,2.8-8.6,5.3-13.2,7.7v-1.4H173.9v1.4c-4.5-2.4-8.9-4.9-13.2-7.7c-8.5-5.5-16.4-11.8-23.6-18.8
				c-28.9-27.8-46.8-66.3-46.8-108.7s17.9-80.9,46.8-108.7c7.2-7,15.1-13.2,23.6-18.8c4.2-2.8,8.6-5.3,13.2-7.7v2.8h152.2v-2.8
				c4.5,2.4,8.9,4.9,13.2,7.7c8.5,5.5,16.4,11.8,23.6,18.8C391.8,134.4,409.7,172.8,409.7,215.3z"/>
			<path style="clip-path:url(#SVGID_2_);fill:#C11C24;" d="M408.7,215.3c0,42.2-17.8,80.4-46.5,108c-14.4,13.8-31.5,25-50.4,32.7
				v-6.9H188.2v6.9c-19-7.7-36.1-18.9-50.4-32.7c-28.7-27.6-46.5-65.8-46.5-108s17.8-80.4,46.5-108c7.2-6.9,15-13.2,23.5-18.7
				c4.2-2.7,8.6-5.3,13.1-7.7v2h151.3v-2c4.5,2.4,8.9,4.9,13.1,7.7c8.4,5.5,16.3,11.7,23.5,18.7
				C390.9,134.9,408.7,173.1,408.7,215.3z"/>
			<path style="clip-path:url(#SVGID_2_);fill:#BE1C26;" d="M407.7,215.3c0,41.9-17.6,79.9-46.2,107.3
				c-14.3,13.7-31.3,24.9-50.1,32.5v-6H188.6v6c-18.9-7.7-35.8-18.8-50.1-32.5c-28.5-27.5-46.2-65.4-46.2-107.3S110,135.4,138.5,108
				c7.1-6.9,14.9-13.1,23.3-18.5c4.2-2.7,8.5-5.3,13-7.6v1.1h150.3v-1.1c4.5,2.3,8.8,4.9,13,7.6c8.4,5.5,16.2,11.7,23.3,18.5
				C390,135.4,407.7,173.4,407.7,215.3z"/>
			<path style="clip-path:url(#SVGID_2_);fill:#BB1C27;" d="M406.6,215.3c0,41.6-17.5,79.4-45.9,106.6
				c-14.2,13.6-31.1,24.7-49.8,32.3v-5.1H189v5.1c-18.7-7.6-35.6-18.7-49.8-32.3c-28.3-27.3-45.9-65-45.9-106.6
				s17.5-79.4,45.9-106.6C153.4,95,170.3,84,189,76.3v6.6H311v-6.6c18.7,7.6,35.6,18.7,49.8,32.3
				C389.1,135.9,406.6,173.6,406.6,215.3z"/>
			<path style="clip-path:url(#SVGID_2_);fill:#B91C29;" d="M405.6,215.3c0,41.4-17.4,78.8-45.6,106c-14.1,13.6-30.8,24.5-49.5,32.1
				v-4.2H189.4v4.2c-18.6-7.6-35.4-18.6-49.5-32.1c-28.2-27.1-45.6-64.6-45.6-106s17.4-78.8,45.6-106c14.1-13.6,30.8-24.5,49.5-32.1
				v5.7h121.2v-5.7c18.6,7.6,35.4,18.6,49.5,32.1C388.2,136.5,405.6,173.9,405.6,215.3z"/>
			<path style="clip-path:url(#SVGID_2_);fill:#B61D2A;" d="M404.6,215.3c0,41.1-17.3,78.3-45.3,105.3c-14,13.5-30.6,24.4-49.1,31.9
				v-3.3H189.8v3.3c-18.5-7.5-35.2-18.4-49.1-31.9c-28-26.9-45.3-64.2-45.3-105.3S112.7,137,140.7,110c14-13.5,30.6-24.4,49.1-31.9
				v4.8h120.4v-4.8c18.5,7.5,35.2,18.4,49.1,31.9C387.3,137,404.6,174.2,404.6,215.3z"/>
			<path style="clip-path:url(#SVGID_2_);fill:#B31D2C;" d="M403.6,215.3c0,40.8-17.2,77.8-45,104.6c-13.9,13.4-30.4,24.2-48.8,31.7
				v-2.4H190.2v2.4c-18.4-7.5-34.9-18.3-48.8-31.7c-27.8-26.8-45-63.7-45-104.6s17.2-77.8,45-104.6c13.9-13.4,30.4-24.2,48.8-31.7
				v3.9h119.6V79c18.4,7.5,34.9,18.3,48.8,31.7C386.4,137.5,403.6,174.5,403.6,215.3z"/>
			<path style="clip-path:url(#SVGID_2_);fill:#B11D2E;" d="M402.6,215.3c0,40.6-17.1,77.3-44.7,103.9c-13.8,13.3-30.2,24-48.5,31.5
				v-1.5H190.6v1.5c-18.3-7.4-34.7-18.2-48.5-31.5c-27.6-26.6-44.7-63.3-44.7-103.9s17.1-77.3,44.7-103.9
				c13.8-13.3,30.2-24,48.5-31.5v3h118.8v-3c18.3,7.4,34.7,18.2,48.5,31.5C385.5,138,402.6,174.7,402.6,215.3z"/>
			<path style="clip-path:url(#SVGID_2_);fill:#AE1D2F;" d="M401.6,215.3c0,40.3-17,76.8-44.4,103.2c-13.7,13.2-30,23.9-48.2,31.3
				v-0.6H191v0.6c-18.1-7.4-34.5-18.1-48.2-31.3c-27.4-26.4-44.4-62.9-44.4-103.2s17-76.8,44.4-103.2c13.7-13.2,30-23.9,48.2-31.3
				v2.1h118v-2.1c18.1,7.4,34.5,18.1,48.2,31.3C384.6,138.5,401.6,175,401.6,215.3z"/>
			<path style="clip-path:url(#SVGID_2_);fill:#AC1E31;" d="M400.5,215.3c0,40-16.8,76.3-44.1,102.5c-13.6,13.1-29.8,23.7-47.9,31.1
				c-4.5,1.8-9.1,3.5-13.8,4.9v-4.6h-89.5v4.6c-4.7-1.4-9.3-3-13.8-4.9c-18-7.3-34.2-17.9-47.9-31.1
				c-27.2-26.2-44.1-62.5-44.1-102.5s16.8-76.3,44.1-102.5c13.6-13.1,29.8-23.7,47.9-31.1v1.2h117.2v-1.2
				c18,7.3,34.2,17.9,47.9,31.1C383.7,139,400.5,175.3,400.5,215.3z"/>
			<path style="clip-path:url(#SVGID_2_);fill:#A91E32;" d="M399.5,215.3c0,39.8-16.7,75.7-43.8,101.8c-13.5,13-29.6,23.6-47.5,30.9
				c-4.5,1.8-9.1,3.4-13.7,4.8v-3.6h-88.9v3.6c-4.7-1.4-9.3-3-13.7-4.8c-17.9-7.3-34-17.8-47.5-30.9c-27.1-26.1-43.8-62-43.8-101.8
				s16.7-75.7,43.8-101.8c13.5-13,29.6-23.6,47.5-30.9v0.3h116.4v-0.3c17.9,7.3,34,17.8,47.5,30.9
				C382.8,139.6,399.5,175.5,399.5,215.3z"/>
			<path style="clip-path:url(#SVGID_2_);fill:#A71E33;" d="M398.5,215.3c0,39.5-16.6,75.2-43.5,101.1
				c-13.4,12.9-29.4,23.4-47.2,30.6c-8.9,3.6-18.2,6.4-27.9,8.3v-6.2h-59.9v6.2c-9.7-1.9-19-4.7-27.9-8.3
				c-17.8-7.2-33.8-17.7-47.2-30.6c-26.9-25.9-43.5-61.6-43.5-101.1s16.6-75.2,43.5-101.1c13.4-12.9,29.4-23.4,47.2-30.6
				c4.4-1.8,9-3.4,13.6-4.8v4.2h88.3v-4.2c4.7,1.4,9.2,3,13.6,4.8c17.8,7.2,33.8,17.7,47.2,30.6
				C381.9,140.1,398.5,175.8,398.5,215.3z"/>
			<path style="clip-path:url(#SVGID_2_);fill:#A41E35;" d="M397.5,215.3c0,39.2-16.5,74.7-43.2,100.4
				c-13.3,12.8-29.2,23.2-46.9,30.4c-8.8,3.6-18.1,6.4-27.7,8.3v-5.3h-59.4v5.3c-9.6-1.9-18.9-4.7-27.7-8.3
				c-17.6-7.2-33.5-17.6-46.9-30.4c-26.7-25.7-43.2-61.2-43.2-100.4s16.5-74.7,43.2-100.4c13.3-12.8,29.2-23.2,46.9-30.4
				c8.8-3.6,18.1-6.4,27.7-8.3v6.7h59.4v-6.7c9.6,1.9,18.9,4.7,27.7,8.3c17.6,7.2,33.5,17.6,46.9,30.4
				C381,140.6,397.5,176.1,397.5,215.3z"/>
			<path style="clip-path:url(#SVGID_2_);fill:#A21E36;" d="M396.5,215.3c0,38.9-16.4,74.2-42.9,99.7c-13.3,12.8-29,23.1-46.6,30.2
				c-8.8,3.6-18,6.3-27.5,8.2v-4.3h-59v4.3c-9.5-1.9-18.7-4.6-27.5-8.2c-17.5-7.1-33.3-17.5-46.6-30.2
				c-26.5-25.5-42.9-60.8-42.9-99.7s16.4-74.2,42.9-99.7c13.3-12.8,29-23.1,46.6-30.2c8.8-3.6,18-6.3,27.5-8.2v5.8h59v-5.8
				c9.5,1.9,18.7,4.6,27.5,8.2c17.5,7.1,33.3,17.5,46.6,30.2C380.1,141.1,396.5,176.4,396.5,215.3z"/>
			<path style="clip-path:url(#SVGID_2_);fill:#A01F38;" d="M395.5,215.3c0,77.3-65.1,140-145.5,140s-145.5-62.7-145.5-140
				c0-38.7,16.3-73.7,42.6-99c13.2-12.7,28.8-22.9,46.2-30c8.7-3.5,17.8-6.3,27.3-8.2v4.8h58.6v-4.8c9.5,1.9,18.6,4.6,27.3,8.2
				c17.4,7.1,33.1,17.3,46.2,30C379.2,141.6,395.5,176.6,395.5,215.3z"/>
			<ellipse style="clip-path:url(#SVGID_2_);fill:#9D1F39;" cx="250" cy="215.3" rx="144.4" ry="139.1"/>
			<ellipse style="clip-path:url(#SVGID_2_);fill:#9B1F3A;" cx="250" cy="215.3" rx="143.4" ry="138.1"/>
			<ellipse style="clip-path:url(#SVGID_2_);fill:#991F3C;" cx="250" cy="215.3" rx="142.4" ry="137.1"/>
			<ellipse style="clip-path:url(#SVGID_2_);fill:#96203D;" cx="250" cy="215.3" rx="141.4" ry="136.1"/>
			<ellipse style="clip-path:url(#SVGID_2_);fill:#94203E;" cx="250" cy="215.3" rx="140.4" ry="135.2"/>
			<ellipse style="clip-path:url(#SVGID_2_);fill:#92203F;" cx="250" cy="215.3" rx="139.4" ry="134.2"/>
			<ellipse style="clip-path:url(#SVGID_2_);fill:#902041;" cx="250" cy="215.3" rx="138.3" ry="133.2"/>
			<ellipse style="clip-path:url(#SVGID_2_);fill:#8E2042;" cx="250" cy="215.3" rx="137.3" ry="132.2"/>
			<ellipse style="clip-path:url(#SVGID_2_);fill:#8C2143;" cx="250" cy="215.3" rx="136.3" ry="131.2"/>
			<ellipse style="clip-path:url(#SVGID_2_);fill:#8A2144;" cx="250" cy="215.3" rx="135.3" ry="130.3"/>
			<ellipse style="clip-path:url(#SVGID_2_);fill:#882146;" cx="250" cy="215.3" rx="134.3" ry="129.3"/>
			<ellipse style="clip-path:url(#SVGID_2_);fill:#862147;" cx="250" cy="215.3" rx="133.2" ry="128.3"/>
			<ellipse style="clip-path:url(#SVGID_2_);fill:#842148;" cx="250" cy="215.3" rx="132.2" ry="127.3"/>
			<ellipse style="clip-path:url(#SVGID_2_);fill:#822149;" cx="250" cy="215.3" rx="131.2" ry="126.3"/>
			<ellipse style="clip-path:url(#SVGID_2_);fill:#80224A;" cx="250" cy="215.3" rx="130.2" ry="125.4"/>
			<ellipse style="clip-path:url(#SVGID_2_);fill:#7E224B;" cx="250" cy="215.3" rx="129.2" ry="124.4"/>
			<ellipse style="clip-path:url(#SVGID_2_);fill:#7C224C;" cx="250" cy="215.3" rx="128.2" ry="123.4"/>
			<ellipse style="clip-path:url(#SVGID_2_);fill:#7B224D;" cx="250" cy="215.3" rx="127.1" ry="122.4"/>
			<ellipse style="clip-path:url(#SVGID_2_);fill:#79224E;" cx="250" cy="215.3" rx="126.1" ry="121.4"/>
			<ellipse style="clip-path:url(#SVGID_2_);fill:#77224F;" cx="250" cy="215.3" rx="125.1" ry="120.5"/>
			<ellipse style="clip-path:url(#SVGID_2_);fill:#752350;" cx="250" cy="215.3" rx="124.1" ry="119.5"/>
			<ellipse style="clip-path:url(#SVGID_2_);fill:#742351;" cx="250" cy="215.3" rx="123.1" ry="118.5"/>
			<ellipse style="clip-path:url(#SVGID_2_);fill:#722352;" cx="250" cy="215.3" rx="122.1" ry="117.5"/>
			<ellipse style="clip-path:url(#SVGID_2_);fill:#702353;" cx="250" cy="215.3" rx="121" ry="116.5"/>
			<ellipse style="clip-path:url(#SVGID_2_);fill:#6F2354;" cx="250" cy="215.3" rx="120" ry="115.6"/>
			<ellipse style="clip-path:url(#SVGID_2_);fill:#6D2355;" cx="250" cy="215.3" rx="119" ry="114.6"/>
			<ellipse style="clip-path:url(#SVGID_2_);fill:#6C2356;" cx="250" cy="215.3" rx="118" ry="113.6"/>
			<ellipse style="clip-path:url(#SVGID_2_);fill:#6A2457;" cx="250" cy="215.3" rx="117" ry="112.6"/>
			<ellipse style="clip-path:url(#SVGID_2_);fill:#692458;" cx="250" cy="215.3" rx="116" ry="111.6"/>
			<ellipse style="clip-path:url(#SVGID_2_);fill:#672459;" cx="250" cy="215.3" rx="114.9" ry="110.7"/>
			<ellipse style="clip-path:url(#SVGID_2_);fill:#66245A;" cx="250" cy="215.3" rx="113.9" ry="109.7"/>
			<ellipse style="clip-path:url(#SVGID_2_);fill:#64245A;" cx="250" cy="215.3" rx="112.9" ry="108.7"/>
			<ellipse style="clip-path:url(#SVGID_2_);fill:#63245B;" cx="250" cy="215.3" rx="111.9" ry="107.7"/>
			<ellipse style="clip-path:url(#SVGID_2_);fill:#61245C;" cx="250" cy="215.3" rx="110.9" ry="106.7"/>
			<ellipse style="clip-path:url(#SVGID_2_);fill:#60255D;" cx="250" cy="215.3" rx="109.9" ry="105.8"/>
			<ellipse style="clip-path:url(#SVGID_2_);fill:#5F255E;" cx="250" cy="215.3" rx="108.8" ry="104.8"/>
			<ellipse style="clip-path:url(#SVGID_2_);fill:#5D255E;" cx="250" cy="215.3" rx="107.8" ry="103.8"/>
			<ellipse style="clip-path:url(#SVGID_2_);fill:#5C255F;" cx="250" cy="215.3" rx="106.8" ry="102.8"/>
			<ellipse style="clip-path:url(#SVGID_2_);fill:#5B2560;" cx="250" cy="215.3" rx="105.8" ry="101.9"/>
			<ellipse style="clip-path:url(#SVGID_2_);fill:#5A2561;" cx="250" cy="215.3" rx="104.8" ry="100.9"/>
			<ellipse style="clip-path:url(#SVGID_2_);fill:#582561;" cx="250" cy="215.3" rx="103.8" ry="99.9"/>
			<ellipse style="clip-path:url(#SVGID_2_);fill:#572562;" cx="250" cy="215.3" rx="102.7" ry="98.9"/>
			<ellipse style="clip-path:url(#SVGID_2_);fill:#562563;" cx="250" cy="215.3" rx="101.7" ry="97.9"/>
			<ellipse style="clip-path:url(#SVGID_2_);fill:#552663;" cx="250" cy="215.3" rx="100.7" ry="97"/>
			<ellipse style="clip-path:url(#SVGID_2_);fill:#542664;" cx="250" cy="215.3" rx="99.7" ry="96"/>
			<ellipse style="clip-path:url(#SVGID_2_);fill:#532665;" cx="250" cy="215.3" rx="98.7" ry="95"/>
			<ellipse style="clip-path:url(#SVGID_2_);fill:#522665;" cx="250" cy="215.3" rx="97.6" ry="94"/>
			<ellipse style="clip-path:url(#SVGID_2_);fill:#512666;" cx="250" cy="215.3" rx="96.6" ry="93"/>
			<ellipse style="clip-path:url(#SVGID_2_);fill:#502666;" cx="250" cy="215.3" rx="95.6" ry="92.1"/>
			<ellipse style="clip-path:url(#SVGID_2_);fill:#4F2667;" cx="250" cy="215.3" rx="94.6" ry="91.1"/>
			<ellipse style="clip-path:url(#SVGID_2_);fill:#4E2668;" cx="250" cy="215.3" rx="93.6" ry="90.1"/>
			<ellipse style="clip-path:url(#SVGID_2_);fill:#4D2668;" cx="250" cy="215.3" rx="92.6" ry="89.1"/>
			<ellipse style="clip-path:url(#SVGID_2_);fill:#4C2669;" cx="250" cy="215.3" rx="91.5" ry="88.1"/>
			<ellipse style="clip-path:url(#SVGID_2_);fill:#4B2769;" cx="250" cy="215.3" rx="90.5" ry="87.2"/>
			<ellipse style="clip-path:url(#SVGID_2_);fill:#4A276A;" cx="250" cy="215.3" rx="89.5" ry="86.2"/>
			<ellipse style="clip-path:url(#SVGID_2_);fill:#49276A;" cx="250" cy="215.3" rx="88.5" ry="85.2"/>
			<ellipse style="clip-path:url(#SVGID_2_);fill:#48276B;" cx="250" cy="215.3" rx="87.5" ry="84.2"/>
			<ellipse style="clip-path:url(#SVGID_2_);fill:#47276B;" cx="250" cy="215.3" rx="86.5" ry="83.2"/>
			<ellipse style="clip-path:url(#SVGID_2_);fill:#47276C;" cx="250" cy="215.3" rx="85.4" ry="82.3"/>
			<ellipse style="clip-path:url(#SVGID_2_);fill:#46276C;" cx="250" cy="215.3" rx="84.4" ry="81.3"/>
			<ellipse style="clip-path:url(#SVGID_2_);fill:#45276D;" cx="250" cy="215.3" rx="83.4" ry="80.3"/>
			<ellipse style="clip-path:url(#SVGID_2_);fill:#44276D;" cx="250" cy="215.3" rx="82.4" ry="79.3"/>
			<ellipse style="clip-path:url(#SVGID_2_);fill:#43276E;" cx="250" cy="215.3" rx="81.4" ry="78.3"/>
			<ellipse style="clip-path:url(#SVGID_2_);fill:#43276E;" cx="250" cy="215.3" rx="80.4" ry="77.4"/>
			<ellipse style="clip-path:url(#SVGID_2_);fill:#42276E;" cx="250" cy="215.3" rx="79.3" ry="76.4"/>
			<ellipse style="clip-path:url(#SVGID_2_);fill:#41276F;" cx="250" cy="215.3" rx="78.3" ry="75.4"/>
			<ellipse style="clip-path:url(#SVGID_2_);fill:#41276F;" cx="250" cy="215.3" rx="77.3" ry="74.4"/>
			<ellipse style="clip-path:url(#SVGID_2_);fill:#402870;" cx="250" cy="215.3" rx="76.3" ry="73.5"/>
			<ellipse style="clip-path:url(#SVGID_2_);fill:#3F2870;" cx="250" cy="215.3" rx="75.3" ry="72.5"/>
			<ellipse style="clip-path:url(#SVGID_2_);fill:#3F2870;" cx="250" cy="215.3" rx="74.3" ry="71.5"/>
			<ellipse style="clip-path:url(#SVGID_2_);fill:#3E2871;" cx="250" cy="215.3" rx="73.2" ry="70.5"/>
			<ellipse style="clip-path:url(#SVGID_2_);fill:#3E2871;" cx="250" cy="215.3" rx="72.2" ry="69.5"/>
			<ellipse style="clip-path:url(#SVGID_2_);fill:#3D2871;" cx="250" cy="215.3" rx="71.2" ry="68.6"/>
			<ellipse style="clip-path:url(#SVGID_2_);fill:#3C2872;" cx="250" cy="215.3" rx="70.2" ry="67.6"/>
			<ellipse style="clip-path:url(#SVGID_2_);fill:#3C2872;" cx="250" cy="215.3" rx="69.2" ry="66.6"/>
			<ellipse style="clip-path:url(#SVGID_2_);fill:#3B2872;" cx="250" cy="215.3" rx="68.2" ry="65.6"/>
			<ellipse style="clip-path:url(#SVGID_2_);fill:#3B2873;" cx="250" cy="215.3" rx="67.1" ry="64.6"/>
			<ellipse style="clip-path:url(#SVGID_2_);fill:#3A2873;" cx="250" cy="215.3" rx="66.1" ry="63.7"/>
			<ellipse style="clip-path:url(#SVGID_2_);fill:#3A2873;" cx="250" cy="215.3" rx="65.1" ry="62.7"/>
			<ellipse style="clip-path:url(#SVGID_2_);fill:#392873;" cx="250" cy="215.3" rx="64.1" ry="61.7"/>
			<ellipse style="clip-path:url(#SVGID_2_);fill:#392874;" cx="250" cy="215.3" rx="63.1" ry="60.7"/>
			<ellipse style="clip-path:url(#SVGID_2_);fill:#392874;" cx="250" cy="215.3" rx="62" ry="59.7"/>
			<ellipse style="clip-path:url(#SVGID_2_);fill:#382874;" cx="250" cy="215.3" rx="61" ry="58.8"/>
			<ellipse style="clip-path:url(#SVGID_2_);fill:#382874;" cx="250" cy="215.3" rx="60" ry="57.8"/>
			<ellipse style="clip-path:url(#SVGID_2_);fill:#372875;" cx="250" cy="215.3" rx="59" ry="56.8"/>
			<ellipse style="clip-path:url(#SVGID_2_);fill:#372875;" cx="250" cy="215.3" rx="58" ry="55.8"/>
			<ellipse style="clip-path:url(#SVGID_2_);fill:#372875;" cx="250" cy="215.3" rx="57" ry="54.8"/>
			<ellipse style="clip-path:url(#SVGID_2_);fill:#362875;" cx="250" cy="215.3" rx="55.9" ry="53.9"/>
			<ellipse style="clip-path:url(#SVGID_2_);fill:#362876;" cx="250" cy="215.3" rx="54.9" ry="52.9"/>
			<ellipse style="clip-path:url(#SVGID_2_);fill:#362876;" cx="250" cy="215.3" rx="53.9" ry="51.9"/>
			<ellipse style="clip-path:url(#SVGID_2_);fill:#352976;" cx="250" cy="215.3" rx="52.9" ry="50.9"/>
			<ellipse style="clip-path:url(#SVGID_2_);fill:#352976;" cx="250" cy="215.3" rx="51.9" ry="49.9"/>
			<ellipse style="clip-path:url(#SVGID_2_);fill:#352976;" cx="250" cy="215.3" rx="50.9" ry="49"/>
			<ellipse style="clip-path:url(#SVGID_2_);fill:#342976;" cx="250" cy="215.3" rx="49.8" ry="48"/>
			<ellipse style="clip-path:url(#SVGID_2_);fill:#342977;" cx="250" cy="215.3" rx="48.8" ry="47"/>
			<ellipse style="clip-path:url(#SVGID_2_);fill:#342977;" cx="250" cy="215.3" rx="47.8" ry="46"/>
			<ellipse style="clip-path:url(#SVGID_2_);fill:#342977;" cx="250" cy="215.3" rx="46.8" ry="45.1"/>
			<ellipse style="clip-path:url(#SVGID_2_);fill:#332977;" cx="250" cy="215.3" rx="45.8" ry="44.1"/>
			<ellipse style="clip-path:url(#SVGID_2_);fill:#332977;" cx="250" cy="215.3" rx="44.8" ry="43.1"/>
			<ellipse style="clip-path:url(#SVGID_2_);fill:#332977;" cx="250" cy="215.3" rx="43.7" ry="42.1"/>
			<ellipse style="clip-path:url(#SVGID_2_);fill:#332977;" cx="250" cy="215.3" rx="42.7" ry="41.1"/>
			<ellipse style="clip-path:url(#SVGID_2_);fill:#332977;" cx="250" cy="215.3" rx="41.7" ry="40.2"/>
			<ellipse style="clip-path:url(#SVGID_2_);fill:#322978;" cx="250" cy="215.3" rx="40.7" ry="39.2"/>
			<ellipse style="clip-path:url(#SVGID_2_);fill:#322978;" cx="250" cy="215.3" rx="39.7" ry="38.2"/>
			<ellipse style="clip-path:url(#SVGID_2_);fill:#322978;" cx="250" cy="215.3" rx="38.7" ry="37.2"/>
			<ellipse style="clip-path:url(#SVGID_2_);fill:#322978;" cx="250" cy="215.3" rx="37.6" ry="36.2"/>
			<ellipse style="clip-path:url(#SVGID_2_);fill:#322978;" cx="250" cy="215.3" rx="36.6" ry="35.3"/>
			<ellipse style="clip-path:url(#SVGID_2_);fill:#322978;" cx="250" cy="215.3" rx="35.6" ry="34.3"/>
			<ellipse style="clip-path:url(#SVGID_2_);fill:#312978;" cx="250" cy="215.3" rx="34.6" ry="33.3"/>
			<ellipse style="clip-path:url(#SVGID_2_);fill:#312978;" cx="250" cy="215.3" rx="33.6" ry="32.3"/>
			<ellipse style="clip-path:url(#SVGID_2_);fill:#312978;" cx="250" cy="215.3" rx="32.5" ry="31.3"/>
			<ellipse style="clip-path:url(#SVGID_2_);fill:#312978;" cx="250" cy="215.3" rx="31.5" ry="30.4"/>
			<ellipse style="clip-path:url(#SVGID_2_);fill:#312978;" cx="250" cy="215.3" rx="30.5" ry="29.4"/>
			<ellipse style="clip-path:url(#SVGID_2_);fill:#312978;" cx="250" cy="215.3" rx="29.5" ry="28.4"/>
			<ellipse style="clip-path:url(#SVGID_2_);fill:#312979;" cx="250" cy="215.3" rx="28.5" ry="27.4"/>
			<ellipse style="clip-path:url(#SVGID_2_);fill:#312979;" cx="250" cy="215.3" rx="27.5" ry="26.4"/>
			<ellipse style="clip-path:url(#SVGID_2_);fill:#312979;" cx="250" cy="215.3" rx="26.4" ry="25.5"/>
			<ellipse style="clip-path:url(#SVGID_2_);fill:#312979;" cx="250" cy="215.3" rx="25.4" ry="24.5"/>
			<ellipse style="clip-path:url(#SVGID_2_);fill:#302979;" cx="250" cy="215.3" rx="24.4" ry="23.5"/>
			<ellipse style="clip-path:url(#SVGID_2_);fill:#302979;" cx="250" cy="215.3" rx="23.4" ry="22.5"/>
			<ellipse style="clip-path:url(#SVGID_2_);fill:#302979;" cx="250" cy="215.3" rx="22.4" ry="21.5"/>
			<ellipse style="clip-path:url(#SVGID_2_);fill:#302979;" cx="250" cy="215.3" rx="21.4" ry="20.6"/>
			<ellipse style="clip-path:url(#SVGID_2_);fill:#302979;" cx="250" cy="215.3" rx="20.3" ry="19.6"/>
			<ellipse style="clip-path:url(#SVGID_2_);fill:#302979;" cx="250" cy="215.3" rx="19.3" ry="18.6"/>
			<ellipse style="clip-path:url(#SVGID_2_);fill:#302979;" cx="250" cy="215.3" rx="18.3" ry="17.6"/>
			<ellipse style="clip-path:url(#SVGID_2_);fill:#302979;" cx="250" cy="215.3" rx="17.3" ry="16.6"/>
			<ellipse style="clip-path:url(#SVGID_2_);fill:#302979;" cx="250" cy="215.3" rx="16.3" ry="15.7"/>
			<ellipse style="clip-path:url(#SVGID_2_);fill:#302979;" cx="250" cy="215.3" rx="15.3" ry="14.7"/>
			<ellipse style="clip-path:url(#SVGID_2_);fill:#302979;" cx="250" cy="215.3" rx="14.2" ry="13.7"/>
			<ellipse style="clip-path:url(#SVGID_2_);fill:#302979;" cx="250" cy="215.3" rx="13.2" ry="12.7"/>
			<ellipse style="clip-path:url(#SVGID_2_);fill:#302979;" cx="250" cy="215.3" rx="12.2" ry="11.8"/>
			<ellipse style="clip-path:url(#SVGID_2_);fill:#302979;" cx="250" cy="215.3" rx="11.2" ry="10.8"/>
			<ellipse style="clip-path:url(#SVGID_2_);fill:#302979;" cx="250" cy="215.3" rx="10.2" ry="9.8"/>
			<ellipse style="clip-path:url(#SVGID_2_);fill:#302979;" cx="250" cy="215.3" rx="9.2" ry="8.8"/>
			<ellipse style="clip-path:url(#SVGID_2_);fill:#302979;" cx="250" cy="215.3" rx="8.1" ry="7.8"/>
			<ellipse style="clip-path:url(#SVGID_2_);fill:#302979;" cx="250" cy="215.3" rx="7.1" ry="6.9"/>
			<ellipse style="clip-path:url(#SVGID_2_);fill:#302979;" cx="250" cy="215.3" rx="6.1" ry="5.9"/>
			<ellipse style="clip-path:url(#SVGID_2_);fill:#302979;" cx="250" cy="215.3" rx="5.1" ry="4.9"/>
			<ellipse style="clip-path:url(#SVGID_2_);fill:#302979;" cx="250" cy="215.3" rx="4.1" ry="3.9"/>
			<ellipse style="clip-path:url(#SVGID_2_);fill:#302979;" cx="250" cy="215.3" rx="3.1" ry="2.9"/>
			<ellipse style="clip-path:url(#SVGID_2_);fill:#302979;" cx="250" cy="215.3" rx="2" ry="2"/>
			<ellipse style="clip-path:url(#SVGID_2_);fill:#302979;" cx="250" cy="215.3" rx="1" ry="1"/>
			<rect x="75.1" y="65.7" style="clip-path:url(#SVGID_2_);fill:#D21A1A;" width="349.8" height="299.4"/>
			<path style="clip-path:url(#SVGID_2_);fill:#D21A1A;" d="M414.8,215.3c0,43.8-18.4,83.5-48.3,112.2c-14.9,14.4-32.7,26-52.4,34
				c-9.9,4-20.2,7.1-30.9,9.2v-4.6h-66.4v4.6c-10.7-2.1-21.1-5.2-30.9-9.2c-19.7-8-37.5-19.6-52.4-34
				c-29.8-28.7-48.3-68.4-48.3-112.2s18.4-83.5,48.3-112.2c14.9-14.4,32.7-26,52.4-34c9.9-4,20.2-7.1,30.9-9.2v4.9h66.4v-4.9
				c10.7,2.1,21.1,5.2,30.9,9.2c19.7,8,37.5,19.6,52.4,34C396.3,131.8,414.8,171.5,414.8,215.3z"/>
			<path style="clip-path:url(#SVGID_2_);fill:#CF1A1C;" d="M413.8,215.3c0,87.1-73.3,157.7-163.8,157.7S86.2,302.4,86.2,215.3
				c0-43.5,18.3-83,48-111.5C149,89.5,166.7,78,186.3,70c9.8-4,20.1-7.1,30.7-9.2v3.9h66v-3.9c10.7,2.1,20.9,5.2,30.7,9.2
				c19.6,8,37.2,19.5,52.1,33.8C395.4,132.3,413.8,171.8,413.8,215.3z"/>
			<ellipse style="clip-path:url(#SVGID_2_);fill:#CC1B1D;" cx="250" cy="215.3" rx="162.7" ry="156.7"/>
			<ellipse style="clip-path:url(#SVGID_2_);fill:#C91B1F;" cx="250" cy="215.3" rx="161.7" ry="155.7"/>
			<ellipse style="clip-path:url(#SVGID_2_);fill:#C61B21;" cx="250" cy="215.3" rx="160.7" ry="154.7"/>
			<ellipse style="clip-path:url(#SVGID_2_);fill:#C31B23;" cx="250" cy="215.3" rx="159.7" ry="153.8"/>
			<ellipse style="clip-path:url(#SVGID_2_);fill:#C11C24;" cx="250" cy="215.3" rx="158.7" ry="152.8"/>
			<ellipse style="clip-path:url(#SVGID_2_);fill:#BE1C26;" cx="250" cy="215.3" rx="157.7" ry="151.8"/>
			<ellipse style="clip-path:url(#SVGID_2_);fill:#BB1C27;" cx="250" cy="215.3" rx="156.6" ry="150.8"/>
			<ellipse style="clip-path:url(#SVGID_2_);fill:#B91C29;" cx="250" cy="215.3" rx="155.6" ry="149.8"/>
			<ellipse style="clip-path:url(#SVGID_2_);fill:#B61D2A;" cx="250" cy="215.3" rx="154.6" ry="148.9"/>
			<ellipse style="clip-path:url(#SVGID_2_);fill:#B31D2C;" cx="250" cy="215.3" rx="153.6" ry="147.9"/>
			<ellipse style="clip-path:url(#SVGID_2_);fill:#B11D2E;" cx="250" cy="215.3" rx="152.6" ry="146.9"/>
			<ellipse style="clip-path:url(#SVGID_2_);fill:#AE1D2F;" cx="250" cy="215.3" rx="151.6" ry="145.9"/>
			<ellipse style="clip-path:url(#SVGID_2_);fill:#AC1E31;" cx="250" cy="215.3" rx="150.5" ry="144.9"/>
			<ellipse style="clip-path:url(#SVGID_2_);fill:#A91E32;" cx="250" cy="215.3" rx="149.5" ry="144"/>
			<ellipse style="clip-path:url(#SVGID_2_);fill:#A71E33;" cx="250" cy="215.3" rx="148.5" ry="143"/>
			<ellipse style="clip-path:url(#SVGID_2_);fill:#A41E35;" cx="250" cy="215.3" rx="147.5" ry="142"/>
			<ellipse style="clip-path:url(#SVGID_2_);fill:#A21E36;" cx="250" cy="215.3" rx="146.5" ry="141"/>
			<ellipse style="clip-path:url(#SVGID_2_);fill:#A01F38;" cx="250" cy="215.3" rx="145.5" ry="140"/>
			<ellipse style="clip-path:url(#SVGID_2_);fill:#9D1F39;" cx="250" cy="215.3" rx="144.4" ry="139.1"/>
			<ellipse style="clip-path:url(#SVGID_2_);fill:#9B1F3A;" cx="250" cy="215.3" rx="143.4" ry="138.1"/>
			<ellipse style="clip-path:url(#SVGID_2_);fill:#991F3C;" cx="250" cy="215.3" rx="142.4" ry="137.1"/>
			<ellipse style="clip-path:url(#SVGID_2_);fill:#96203D;" cx="250" cy="215.3" rx="141.4" ry="136.1"/>
			<ellipse style="clip-path:url(#SVGID_2_);fill:#94203E;" cx="250" cy="215.3" rx="140.4" ry="135.2"/>
			<ellipse style="clip-path:url(#SVGID_2_);fill:#92203F;" cx="250" cy="215.3" rx="139.4" ry="134.2"/>
			<ellipse style="clip-path:url(#SVGID_2_);fill:#902041;" cx="250" cy="215.3" rx="138.3" ry="133.2"/>
			<ellipse style="clip-path:url(#SVGID_2_);fill:#8E2042;" cx="250" cy="215.3" rx="137.3" ry="132.2"/>
			<ellipse style="clip-path:url(#SVGID_2_);fill:#8C2143;" cx="250" cy="215.3" rx="136.3" ry="131.2"/>
			<ellipse style="clip-path:url(#SVGID_2_);fill:#8A2144;" cx="250" cy="215.3" rx="135.3" ry="130.3"/>
			<ellipse style="clip-path:url(#SVGID_2_);fill:#882146;" cx="250" cy="215.3" rx="134.3" ry="129.3"/>
			<ellipse style="clip-path:url(#SVGID_2_);fill:#862147;" cx="250" cy="215.3" rx="133.2" ry="128.3"/>
			<ellipse style="clip-path:url(#SVGID_2_);fill:#842148;" cx="250" cy="215.3" rx="132.2" ry="127.3"/>
			<ellipse style="clip-path:url(#SVGID_2_);fill:#822149;" cx="250" cy="215.3" rx="131.2" ry="126.3"/>
			<ellipse style="clip-path:url(#SVGID_2_);fill:#80224A;" cx="250" cy="215.3" rx="130.2" ry="125.4"/>
			<ellipse style="clip-path:url(#SVGID_2_);fill:#7E224B;" cx="250" cy="215.3" rx="129.2" ry="124.4"/>
			<ellipse style="clip-path:url(#SVGID_2_);fill:#7C224C;" cx="250" cy="215.3" rx="128.2" ry="123.4"/>
			<ellipse style="clip-path:url(#SVGID_2_);fill:#7B224D;" cx="250" cy="215.3" rx="127.1" ry="122.4"/>
			<ellipse style="clip-path:url(#SVGID_2_);fill:#79224E;" cx="250" cy="215.3" rx="126.1" ry="121.4"/>
			<ellipse style="clip-path:url(#SVGID_2_);fill:#77224F;" cx="250" cy="215.3" rx="125.1" ry="120.5"/>
			<ellipse style="clip-path:url(#SVGID_2_);fill:#752350;" cx="250" cy="215.3" rx="124.1" ry="119.5"/>
			<ellipse style="clip-path:url(#SVGID_2_);fill:#742351;" cx="250" cy="215.3" rx="123.1" ry="118.5"/>
			<ellipse style="clip-path:url(#SVGID_2_);fill:#722352;" cx="250" cy="215.3" rx="122.1" ry="117.5"/>
			<ellipse style="clip-path:url(#SVGID_2_);fill:#702353;" cx="250" cy="215.3" rx="121" ry="116.5"/>
			<ellipse style="clip-path:url(#SVGID_2_);fill:#6F2354;" cx="250" cy="215.3" rx="120" ry="115.6"/>
			<ellipse style="clip-path:url(#SVGID_2_);fill:#6D2355;" cx="250" cy="215.3" rx="119" ry="114.6"/>
			<ellipse style="clip-path:url(#SVGID_2_);fill:#6C2356;" cx="250" cy="215.3" rx="118" ry="113.6"/>
			<ellipse style="clip-path:url(#SVGID_2_);fill:#6A2457;" cx="250" cy="215.3" rx="117" ry="112.6"/>
			<ellipse style="clip-path:url(#SVGID_2_);fill:#692458;" cx="250" cy="215.3" rx="116" ry="111.6"/>
			<ellipse style="clip-path:url(#SVGID_2_);fill:#672459;" cx="250" cy="215.3" rx="114.9" ry="110.7"/>
			<ellipse style="clip-path:url(#SVGID_2_);fill:#66245A;" cx="250" cy="215.3" rx="113.9" ry="109.7"/>
			<ellipse style="clip-path:url(#SVGID_2_);fill:#64245A;" cx="250" cy="215.3" rx="112.9" ry="108.7"/>
			<ellipse style="clip-path:url(#SVGID_2_);fill:#63245B;" cx="250" cy="215.3" rx="111.9" ry="107.7"/>
			<ellipse style="clip-path:url(#SVGID_2_);fill:#61245C;" cx="250" cy="215.3" rx="110.9" ry="106.7"/>
			<ellipse style="clip-path:url(#SVGID_2_);fill:#60255D;" cx="250" cy="215.3" rx="109.9" ry="105.8"/>
			<ellipse style="clip-path:url(#SVGID_2_);fill:#5F255E;" cx="250" cy="215.3" rx="108.8" ry="104.8"/>
			<ellipse style="clip-path:url(#SVGID_2_);fill:#5D255E;" cx="250" cy="215.3" rx="107.8" ry="103.8"/>
			<ellipse style="clip-path:url(#SVGID_2_);fill:#5C255F;" cx="250" cy="215.3" rx="106.8" ry="102.8"/>
			<ellipse style="clip-path:url(#SVGID_2_);fill:#5B2560;" cx="250" cy="215.3" rx="105.8" ry="101.9"/>
			<ellipse style="clip-path:url(#SVGID_2_);fill:#5A2561;" cx="250" cy="215.3" rx="104.8" ry="100.9"/>
			<ellipse style="clip-path:url(#SVGID_2_);fill:#582561;" cx="250" cy="215.3" rx="103.8" ry="99.9"/>
			<ellipse style="clip-path:url(#SVGID_2_);fill:#572562;" cx="250" cy="215.3" rx="102.7" ry="98.9"/>
			<ellipse style="clip-path:url(#SVGID_2_);fill:#562563;" cx="250" cy="215.3" rx="101.7" ry="97.9"/>
			<ellipse style="clip-path:url(#SVGID_2_);fill:#552663;" cx="250" cy="215.3" rx="100.7" ry="97"/>
			<ellipse style="clip-path:url(#SVGID_2_);fill:#542664;" cx="250" cy="215.3" rx="99.7" ry="96"/>
			<ellipse style="clip-path:url(#SVGID_2_);fill:#532665;" cx="250" cy="215.3" rx="98.7" ry="95"/>
			<ellipse style="clip-path:url(#SVGID_2_);fill:#522665;" cx="250" cy="215.3" rx="97.6" ry="94"/>
			<ellipse style="clip-path:url(#SVGID_2_);fill:#512666;" cx="250" cy="215.3" rx="96.6" ry="93"/>
			<ellipse style="clip-path:url(#SVGID_2_);fill:#502666;" cx="250" cy="215.3" rx="95.6" ry="92.1"/>
			<ellipse style="clip-path:url(#SVGID_2_);fill:#4F2667;" cx="250" cy="215.3" rx="94.6" ry="91.1"/>
			<ellipse style="clip-path:url(#SVGID_2_);fill:#4E2668;" cx="250" cy="215.3" rx="93.6" ry="90.1"/>
			<ellipse style="clip-path:url(#SVGID_2_);fill:#4D2668;" cx="250" cy="215.3" rx="92.6" ry="89.1"/>
			<ellipse style="clip-path:url(#SVGID_2_);fill:#4C2669;" cx="250" cy="215.3" rx="91.5" ry="88.1"/>
			<ellipse style="clip-path:url(#SVGID_2_);fill:#4B2769;" cx="250" cy="215.3" rx="90.5" ry="87.2"/>
			<ellipse style="clip-path:url(#SVGID_2_);fill:#4A276A;" cx="250" cy="215.3" rx="89.5" ry="86.2"/>
			<ellipse style="clip-path:url(#SVGID_2_);fill:#49276A;" cx="250" cy="215.3" rx="88.5" ry="85.2"/>
			<ellipse style="clip-path:url(#SVGID_2_);fill:#48276B;" cx="250" cy="215.3" rx="87.5" ry="84.2"/>
			<ellipse style="clip-path:url(#SVGID_2_);fill:#47276B;" cx="250" cy="215.3" rx="86.5" ry="83.2"/>
			<ellipse style="clip-path:url(#SVGID_2_);fill:#47276C;" cx="250" cy="215.3" rx="85.4" ry="82.3"/>
			<ellipse style="clip-path:url(#SVGID_2_);fill:#46276C;" cx="250" cy="215.3" rx="84.4" ry="81.3"/>
			<ellipse style="clip-path:url(#SVGID_2_);fill:#45276D;" cx="250" cy="215.3" rx="83.4" ry="80.3"/>
			<ellipse style="clip-path:url(#SVGID_2_);fill:#44276D;" cx="250" cy="215.3" rx="82.4" ry="79.3"/>
			<ellipse style="clip-path:url(#SVGID_2_);fill:#43276E;" cx="250" cy="215.3" rx="81.4" ry="78.3"/>
			<ellipse style="clip-path:url(#SVGID_2_);fill:#43276E;" cx="250" cy="215.3" rx="80.4" ry="77.4"/>
			<ellipse style="clip-path:url(#SVGID_2_);fill:#42276E;" cx="250" cy="215.3" rx="79.3" ry="76.4"/>
			<ellipse style="clip-path:url(#SVGID_2_);fill:#41276F;" cx="250" cy="215.3" rx="78.3" ry="75.4"/>
			<ellipse style="clip-path:url(#SVGID_2_);fill:#41276F;" cx="250" cy="215.3" rx="77.3" ry="74.4"/>
			<ellipse style="clip-path:url(#SVGID_2_);fill:#402870;" cx="250" cy="215.3" rx="76.3" ry="73.5"/>
			<ellipse style="clip-path:url(#SVGID_2_);fill:#3F2870;" cx="250" cy="215.3" rx="75.3" ry="72.5"/>
			<ellipse style="clip-path:url(#SVGID_2_);fill:#3F2870;" cx="250" cy="215.3" rx="74.3" ry="71.5"/>
			<ellipse style="clip-path:url(#SVGID_2_);fill:#3E2871;" cx="250" cy="215.3" rx="73.2" ry="70.5"/>
			<ellipse style="clip-path:url(#SVGID_2_);fill:#3E2871;" cx="250" cy="215.3" rx="72.2" ry="69.5"/>
			<ellipse style="clip-path:url(#SVGID_2_);fill:#3D2871;" cx="250" cy="215.3" rx="71.2" ry="68.6"/>
			<ellipse style="clip-path:url(#SVGID_2_);fill:#3C2872;" cx="250" cy="215.3" rx="70.2" ry="67.6"/>
			<ellipse style="clip-path:url(#SVGID_2_);fill:#3C2872;" cx="250" cy="215.3" rx="69.2" ry="66.6"/>
			<ellipse style="clip-path:url(#SVGID_2_);fill:#3B2872;" cx="250" cy="215.3" rx="68.2" ry="65.6"/>
			<ellipse style="clip-path:url(#SVGID_2_);fill:#3B2873;" cx="250" cy="215.3" rx="67.1" ry="64.6"/>
			<ellipse style="clip-path:url(#SVGID_2_);fill:#3A2873;" cx="250" cy="215.3" rx="66.1" ry="63.7"/>
			<ellipse style="clip-path:url(#SVGID_2_);fill:#3A2873;" cx="250" cy="215.3" rx="65.1" ry="62.7"/>
			<ellipse style="clip-path:url(#SVGID_2_);fill:#392873;" cx="250" cy="215.3" rx="64.1" ry="61.7"/>
			<ellipse style="clip-path:url(#SVGID_2_);fill:#392874;" cx="250" cy="215.3" rx="63.1" ry="60.7"/>
			<ellipse style="clip-path:url(#SVGID_2_);fill:#392874;" cx="250" cy="215.3" rx="62" ry="59.7"/>
			<ellipse style="clip-path:url(#SVGID_2_);fill:#382874;" cx="250" cy="215.3" rx="61" ry="58.8"/>
			<ellipse style="clip-path:url(#SVGID_2_);fill:#382874;" cx="250" cy="215.3" rx="60" ry="57.8"/>
			<ellipse style="clip-path:url(#SVGID_2_);fill:#372875;" cx="250" cy="215.3" rx="59" ry="56.8"/>
			<ellipse style="clip-path:url(#SVGID_2_);fill:#372875;" cx="250" cy="215.3" rx="58" ry="55.8"/>
			<ellipse style="clip-path:url(#SVGID_2_);fill:#372875;" cx="250" cy="215.3" rx="57" ry="54.8"/>
			<ellipse style="clip-path:url(#SVGID_2_);fill:#362875;" cx="250" cy="215.3" rx="55.9" ry="53.9"/>
			<ellipse style="clip-path:url(#SVGID_2_);fill:#362876;" cx="250" cy="215.3" rx="54.9" ry="52.9"/>
			<ellipse style="clip-path:url(#SVGID_2_);fill:#362876;" cx="250" cy="215.3" rx="53.9" ry="51.9"/>
			<ellipse style="clip-path:url(#SVGID_2_);fill:#352976;" cx="250" cy="215.3" rx="52.9" ry="50.9"/>
			<ellipse style="clip-path:url(#SVGID_2_);fill:#352976;" cx="250" cy="215.3" rx="51.9" ry="49.9"/>
			<ellipse style="clip-path:url(#SVGID_2_);fill:#352976;" cx="250" cy="215.3" rx="50.9" ry="49"/>
			<ellipse style="clip-path:url(#SVGID_2_);fill:#342976;" cx="250" cy="215.3" rx="49.8" ry="48"/>
			<ellipse style="clip-path:url(#SVGID_2_);fill:#342977;" cx="250" cy="215.3" rx="48.8" ry="47"/>
			<ellipse style="clip-path:url(#SVGID_2_);fill:#342977;" cx="250" cy="215.3" rx="47.8" ry="46"/>
			<ellipse style="clip-path:url(#SVGID_2_);fill:#342977;" cx="250" cy="215.3" rx="46.8" ry="45.1"/>
			<ellipse style="clip-path:url(#SVGID_2_);fill:#332977;" cx="250" cy="215.3" rx="45.8" ry="44.1"/>
			<ellipse style="clip-path:url(#SVGID_2_);fill:#332977;" cx="250" cy="215.3" rx="44.8" ry="43.1"/>
			<ellipse style="clip-path:url(#SVGID_2_);fill:#332977;" cx="250" cy="215.3" rx="43.7" ry="42.1"/>
			<ellipse style="clip-path:url(#SVGID_2_);fill:#332977;" cx="250" cy="215.3" rx="42.7" ry="41.1"/>
			<ellipse style="clip-path:url(#SVGID_2_);fill:#332977;" cx="250" cy="215.3" rx="41.7" ry="40.2"/>
			<ellipse style="clip-path:url(#SVGID_2_);fill:#322978;" cx="250" cy="215.3" rx="40.7" ry="39.2"/>
			<ellipse style="clip-path:url(#SVGID_2_);fill:#322978;" cx="250" cy="215.3" rx="39.7" ry="38.2"/>
			<ellipse style="clip-path:url(#SVGID_2_);fill:#322978;" cx="250" cy="215.3" rx="38.7" ry="37.2"/>
			<ellipse style="clip-path:url(#SVGID_2_);fill:#322978;" cx="250" cy="215.3" rx="37.6" ry="36.2"/>
			<ellipse style="clip-path:url(#SVGID_2_);fill:#322978;" cx="250" cy="215.3" rx="36.6" ry="35.3"/>
			<ellipse style="clip-path:url(#SVGID_2_);fill:#322978;" cx="250" cy="215.3" rx="35.6" ry="34.3"/>
			<ellipse style="clip-path:url(#SVGID_2_);fill:#312978;" cx="250" cy="215.3" rx="34.6" ry="33.3"/>
			<ellipse style="clip-path:url(#SVGID_2_);fill:#312978;" cx="250" cy="215.3" rx="33.6" ry="32.3"/>
			<ellipse style="clip-path:url(#SVGID_2_);fill:#312978;" cx="250" cy="215.3" rx="32.5" ry="31.3"/>
			<ellipse style="clip-path:url(#SVGID_2_);fill:#312978;" cx="250" cy="215.3" rx="31.5" ry="30.4"/>
			<ellipse style="clip-path:url(#SVGID_2_);fill:#312978;" cx="250" cy="215.3" rx="30.5" ry="29.4"/>
			<ellipse style="clip-path:url(#SVGID_2_);fill:#312978;" cx="250" cy="215.3" rx="29.5" ry="28.4"/>
			<ellipse style="clip-path:url(#SVGID_2_);fill:#312979;" cx="250" cy="215.3" rx="28.5" ry="27.4"/>
			<ellipse style="clip-path:url(#SVGID_2_);fill:#312979;" cx="250" cy="215.3" rx="27.5" ry="26.4"/>
			<ellipse style="clip-path:url(#SVGID_2_);fill:#312979;" cx="250" cy="215.3" rx="26.4" ry="25.5"/>
			<ellipse style="clip-path:url(#SVGID_2_);fill:#312979;" cx="250" cy="215.3" rx="25.4" ry="24.5"/>
			<ellipse style="clip-path:url(#SVGID_2_);fill:#302979;" cx="250" cy="215.3" rx="24.4" ry="23.5"/>
			<ellipse style="clip-path:url(#SVGID_2_);fill:#302979;" cx="250" cy="215.3" rx="23.4" ry="22.5"/>
			<ellipse style="clip-path:url(#SVGID_2_);fill:#302979;" cx="250" cy="215.3" rx="22.4" ry="21.5"/>
			<ellipse style="clip-path:url(#SVGID_2_);fill:#302979;" cx="250" cy="215.3" rx="21.4" ry="20.6"/>
			<ellipse style="clip-path:url(#SVGID_2_);fill:#302979;" cx="250" cy="215.3" rx="20.3" ry="19.6"/>
			<ellipse style="clip-path:url(#SVGID_2_);fill:#302979;" cx="250" cy="215.3" rx="19.3" ry="18.6"/>
			<ellipse style="clip-path:url(#SVGID_2_);fill:#302979;" cx="250" cy="215.3" rx="18.3" ry="17.6"/>
			<ellipse style="clip-path:url(#SVGID_2_);fill:#302979;" cx="250" cy="215.3" rx="17.3" ry="16.6"/>
			<ellipse style="clip-path:url(#SVGID_2_);fill:#302979;" cx="250" cy="215.3" rx="16.3" ry="15.7"/>
			<ellipse style="clip-path:url(#SVGID_2_);fill:#302979;" cx="250" cy="215.3" rx="15.3" ry="14.7"/>
			<ellipse style="clip-path:url(#SVGID_2_);fill:#302979;" cx="250" cy="215.3" rx="14.2" ry="13.7"/>
			<ellipse style="clip-path:url(#SVGID_2_);fill:#302979;" cx="250" cy="215.3" rx="13.2" ry="12.7"/>
			<ellipse style="clip-path:url(#SVGID_2_);fill:#302979;" cx="250" cy="215.3" rx="12.2" ry="11.8"/>
			<ellipse style="clip-path:url(#SVGID_2_);fill:#302979;" cx="250" cy="215.3" rx="11.2" ry="10.8"/>
			<ellipse style="clip-path:url(#SVGID_2_);fill:#302979;" cx="250" cy="215.3" rx="10.2" ry="9.8"/>
			<ellipse style="clip-path:url(#SVGID_2_);fill:#302979;" cx="250" cy="215.3" rx="9.2" ry="8.8"/>
			<ellipse style="clip-path:url(#SVGID_2_);fill:#302979;" cx="250" cy="215.3" rx="8.1" ry="7.8"/>
			<ellipse style="clip-path:url(#SVGID_2_);fill:#302979;" cx="250" cy="215.3" rx="7.1" ry="6.9"/>
			<ellipse style="clip-path:url(#SVGID_2_);fill:#302979;" cx="250" cy="215.3" rx="6.1" ry="5.9"/>
			<ellipse style="clip-path:url(#SVGID_2_);fill:#302979;" cx="250" cy="215.3" rx="5.1" ry="4.9"/>
			<ellipse style="clip-path:url(#SVGID_2_);fill:#302979;" cx="250" cy="215.3" rx="4.1" ry="3.9"/>
			<ellipse style="clip-path:url(#SVGID_2_);fill:#302979;" cx="250" cy="215.3" rx="3.1" ry="2.9"/>
			<ellipse style="clip-path:url(#SVGID_2_);fill:#302979;" cx="250" cy="215.3" rx="2" ry="2"/>
			<ellipse style="clip-path:url(#SVGID_2_);fill:#302979;" cx="250" cy="215.3" rx="1" ry="1"/>
		</g>
		<linearGradient id="SVGID_3_" gradientUnits="userSpaceOnUse" x1="75.4144" y1="215.2939" x2="424.5849" y2="215.2939">
			<stop  offset="0" style="stop-color:#302979"/>
			<stop  offset="0.2498" style="stop-color:#332977"/>
			<stop  offset="0.4076" style="stop-color:#3B2872"/>
			<stop  offset="0.5398" style="stop-color:#4A276A"/>
			<stop  offset="0.658" style="stop-color:#5F255E"/>
			<stop  offset="0.7669" style="stop-color:#7A224E"/>
			<stop  offset="0.8688" style="stop-color:#9B1F3A"/>
			<stop  offset="0.9635" style="stop-color:#C11C24"/>
			<stop  offset="1" style="stop-color:#D21A1A"/>
		</linearGradient>
		<path style="fill:url(#SVGID_3_);" d="M381.2,365c-24.3,0-47.7-4.4-67.7-8.8c-12.1-2.7-24.3-5.7-36.1-8.7c-7.8-2-16-4-24-5.9
			c-0.2,0-0.4-0.1-0.6-0.1l0,0.3l-0.6-0.2c-0.8-0.2-1.6-0.3-2.3-0.3c-0.6,0-1.4,0.1-2.2,0.3l-0.6,0.2l0-0.3c-0.2,0-0.4,0-0.6,0.1
			c-8,1.9-16.1,3.9-24,5.9c-11.8,3-24,6-36.1,8.7c-21.6,4.7-47.2,9.5-73.4,8.7c-7.4-0.2-17.1-1-25.9-5.5c-8.5-4.3-12.5-10.9-11.6-19
			c0.7-5.9,1.9-13.4,5.3-19.4c7.8-13.8,15.3-25.3,23-35.2c19.8-25.5,43.5-48.1,66.4-70c1.3-1.3,2.3-2.8,2.9-4.6
			c2.2-7.2,4.3-14.6,6.3-21.8c2-7.3,4.1-14.9,6.4-22.3c8.6-27.4,16.8-51.9,30.5-74.3c4.6-7.5,10.4-14.6,16.7-20.5
			c5.3-5,11.1-7.2,17.1-6.7c6.1-0.5,11.8,1.8,17.1,6.7c6.3,5.9,12.1,13,16.7,20.5c13.7,22.4,21.9,46.9,30.5,74.3
			c2.3,7.4,4.4,14.9,6.4,22.3c2,7.2,4,14.5,6.3,21.7c0.5,1.7,1.5,3.3,2.9,4.6c22.9,21.9,46.6,44.5,66.4,70
			c7.7,9.9,15.2,21.4,23,35.2c3.4,6,4.6,13.5,5.3,19.4c0.9,8.1-3.1,14.7-11.6,19c-8.8,4.5-18.5,5.3-25.9,5.5
			C385,364.9,383.1,365,381.2,365z M251.8,340.4l0.6,0.1c0.1,0,0.3,0,0.4,0c0.3,0,0.5,0,0.8,0.1c8,1.9,16.1,3.9,24,5.9
			c11.8,3,24,6,36.1,8.7c21.5,4.7,47,9.4,73.2,8.7c7.3-0.2,16.9-1,25.5-5.4c5.6-2.9,12.1-8.3,11-18c-0.7-5.8-1.8-13.2-5.1-19
			c-7.8-13.7-15.3-25.2-22.9-35.1c-19.8-25.4-43.4-48.1-66.3-69.9c-1.5-1.4-2.5-3.1-3.1-5c-2.2-7.2-4.3-14.6-6.3-21.8
			c-2-7.3-4.1-14.9-6.4-22.2c-8.6-27.3-16.7-51.8-30.4-74c-4.5-7.4-10.2-14.4-16.5-20.3c-5-4.6-10.3-6.8-15.9-6.5l0,0.2h-1l0-0.2
			c-5.6-0.3-11,1.9-15.9,6.5c-6.2,5.8-11.9,12.8-16.5,20.3c-13.6,22.3-21.8,46.7-30.4,74c-2.3,7.4-4.4,14.9-6.4,22.2
			c-2,7.2-4,14.6-6.3,21.8c-0.6,1.9-1.7,3.6-3.1,5c-22.9,21.9-46.6,44.5-66.3,69.9c-7.6,9.8-15.1,21.3-22.9,35.1
			c-3.3,5.8-4.5,13.2-5.1,19c-1.1,9.7,5.4,15.1,11,18c8.6,4.4,18.2,5.2,25.5,5.4c26.2,0.8,51.7-4,73.2-8.7
			c12.1-2.7,24.3-5.7,36.1-8.7c7.9-2,16-4,24-5.9c0.3-0.1,0.6-0.1,0.8-0.1c0.1,0,0.3,0,0.4,0l0.6-0.1l0,0.2c0.6-0.1,1.3-0.2,1.8-0.2
			c0.6,0,1.2,0.1,1.9,0.2L251.8,340.4z M381.1,347.3c-0.1,0-0.2,0-0.3,0c-28.5-0.6-54.4-6.2-78.4-11.8c-8.8-2.1-17.7-4.4-26.3-6.7
			c-7.4-2-15.1-4-22.7-5.8c-0.3-0.1-0.5-0.1-0.8-0.1c-0.2,0-0.4,0-0.5,0l-0.4-0.1l0-0.2c-0.5,0-1-0.1-1.6-0.2l-0.1,0
			c-0.1,0-0.3,0-0.4,0c-0.4,0.1-0.9,0.3-1.4,0.4l-0.3,0.1c-0.1,0-0.1,0-0.2,0c-27.4,7.4-59.4,15.8-91.9,20.6
			c-15.9,2.4-33.8,5-51.6,1.5c-4.5-0.9-7.5-1.9-8.6-4.1c-0.9-1.8-0.5-4.2,1.4-8.1c5.5-11.4,10.9-20.8,16.7-28.6
			c16-21.9,35.8-43.1,64.2-68.6c9.7-8.8,15.5-18.5,18.8-31.6c6.9-27.3,16-59.5,31.5-90.4c4.9-9.9,11.5-18.8,16.7-25.5
			c1.9-2.4,3.4-3.8,4.9-4.3l0.4-0.1c2.6-0.7,5,1.2,7.9,4.3c9.2,9.7,14.8,21.3,19.7,32.3c14,31.4,23.1,65,31.8,97.4l0.5,2
			c0.5,1.9,1.5,3.6,3,4.9l1.6,1.5c26.8,25.4,54.5,51.7,76.2,82.3c1,1.5,2,3,3.1,4.8c1.1,1.9,2.1,3.6,3,5.2c7.6,13,11,18.9,9.3,22.6
			c-1.3,2.7-5.3,3.8-12.1,4.8c-3.5,0.5-7,0.7-9.9,0.8c-0.8,0-1.6,0.1-2.3,0.1C381.6,347.3,381.4,347.3,381.1,347.3z M252.7,321.9
			C252.7,321.9,252.7,321.9,252.7,321.9c0.3,0,0.7,0,1,0.1c7.6,1.8,15.3,3.9,22.7,5.8c8.6,2.3,17.5,4.6,26.3,6.7
			c24,5.6,49.7,11.1,78.2,11.8c0.3,0,0.7,0,1,0c0.7,0,1.4-0.1,2.3-0.1c2.8-0.1,6.3-0.2,9.8-0.8l0.1,0.5l-0.1-0.5
			c6.4-1,10.3-2,11.4-4.3c1.5-3.2-2.1-9.4-9.2-21.7c-1-1.6-2-3.4-3-5.2c-1-1.8-2-3.3-3-4.8c-21.6-30.6-49.3-56.8-76.1-82.2l-1.6-1.5
			c-1.6-1.5-2.7-3.4-3.2-5.4l-0.5-2c-8.7-32.4-17.7-65.9-31.7-97.3c-4.9-11-10.4-22.5-19.5-32c-3.2-3.4-5.2-4.5-7-4l-0.3,0.1
			c-1.2,0.4-2.6,1.7-4.3,3.9c-5.1,6.7-11.7,15.5-16.6,25.3c-15.5,30.9-24.6,62.9-31.4,90.2c-3.3,13.3-9.2,23.2-19.1,32.1
			c-28.3,25.5-48.1,46.6-64.1,68.5c-5.7,7.8-11.1,17.2-16.6,28.5c-1.7,3.6-2.1,5.8-1.4,7.2c0.8,1.6,3,2.6,7.9,3.5
			c17.6,3.5,35.5,0.8,51.3-1.5c32.5-4.8,64.4-13.2,91.8-20.6c0,0,0.1,0,0.1,0l0.2,0c0.6-0.1,1.2-0.3,1.7-0.5l0.1,0
			c0.1,0,0.3,0,0.4,0l0.3,0l0.1,0c0.7,0.1,1.4,0.2,2,0.2l0.5,0L252.7,321.9z"/>
	</g>
</g>
</svg>
